G04 #@! TF.GenerationSoftware,KiCad,Pcbnew,(5.1.2)-2*
G04 #@! TF.CreationDate,2019-11-17T20:51:39-03:00*
G04 #@! TF.ProjectId,circuit,63697263-7569-4742-9e6b-696361645f70,rev?*
G04 #@! TF.SameCoordinates,Original*
G04 #@! TF.FileFunction,Copper,L1,Top*
G04 #@! TF.FilePolarity,Positive*
%FSLAX46Y46*%
G04 Gerber Fmt 4.6, Leading zero omitted, Abs format (unit mm)*
G04 Created by KiCad (PCBNEW (5.1.2)-2) date 2019-11-17 20:51:39*
%MOMM*%
%LPD*%
G04 APERTURE LIST*
%ADD10C,0.100000*%
%ADD11C,0.975000*%
%ADD12C,1.300000*%
%ADD13R,0.450000X1.500000*%
%ADD14O,1.800000X1.100000*%
%ADD15O,2.200000X1.100000*%
%ADD16R,2.000000X0.500000*%
%ADD17R,1.450000X0.450000*%
%ADD18C,0.600000*%
%ADD19R,3.400000X6.500000*%
%ADD20R,2.000000X3.800000*%
%ADD21R,2.000000X1.500000*%
%ADD22C,0.800000*%
%ADD23C,0.250000*%
%ADD24C,0.254000*%
G04 APERTURE END LIST*
D10*
G36*
X172382642Y-74231174D02*
G01*
X172406303Y-74234684D01*
X172429507Y-74240496D01*
X172452029Y-74248554D01*
X172473653Y-74258782D01*
X172494170Y-74271079D01*
X172513383Y-74285329D01*
X172531107Y-74301393D01*
X172547171Y-74319117D01*
X172561421Y-74338330D01*
X172573718Y-74358847D01*
X172583946Y-74380471D01*
X172592004Y-74402993D01*
X172597816Y-74426197D01*
X172601326Y-74449858D01*
X172602500Y-74473750D01*
X172602500Y-75386250D01*
X172601326Y-75410142D01*
X172597816Y-75433803D01*
X172592004Y-75457007D01*
X172583946Y-75479529D01*
X172573718Y-75501153D01*
X172561421Y-75521670D01*
X172547171Y-75540883D01*
X172531107Y-75558607D01*
X172513383Y-75574671D01*
X172494170Y-75588921D01*
X172473653Y-75601218D01*
X172452029Y-75611446D01*
X172429507Y-75619504D01*
X172406303Y-75625316D01*
X172382642Y-75628826D01*
X172358750Y-75630000D01*
X171871250Y-75630000D01*
X171847358Y-75628826D01*
X171823697Y-75625316D01*
X171800493Y-75619504D01*
X171777971Y-75611446D01*
X171756347Y-75601218D01*
X171735830Y-75588921D01*
X171716617Y-75574671D01*
X171698893Y-75558607D01*
X171682829Y-75540883D01*
X171668579Y-75521670D01*
X171656282Y-75501153D01*
X171646054Y-75479529D01*
X171637996Y-75457007D01*
X171632184Y-75433803D01*
X171628674Y-75410142D01*
X171627500Y-75386250D01*
X171627500Y-74473750D01*
X171628674Y-74449858D01*
X171632184Y-74426197D01*
X171637996Y-74402993D01*
X171646054Y-74380471D01*
X171656282Y-74358847D01*
X171668579Y-74338330D01*
X171682829Y-74319117D01*
X171698893Y-74301393D01*
X171716617Y-74285329D01*
X171735830Y-74271079D01*
X171756347Y-74258782D01*
X171777971Y-74248554D01*
X171800493Y-74240496D01*
X171823697Y-74234684D01*
X171847358Y-74231174D01*
X171871250Y-74230000D01*
X172358750Y-74230000D01*
X172382642Y-74231174D01*
X172382642Y-74231174D01*
G37*
D11*
X172115000Y-74930000D03*
D10*
G36*
X174257642Y-74231174D02*
G01*
X174281303Y-74234684D01*
X174304507Y-74240496D01*
X174327029Y-74248554D01*
X174348653Y-74258782D01*
X174369170Y-74271079D01*
X174388383Y-74285329D01*
X174406107Y-74301393D01*
X174422171Y-74319117D01*
X174436421Y-74338330D01*
X174448718Y-74358847D01*
X174458946Y-74380471D01*
X174467004Y-74402993D01*
X174472816Y-74426197D01*
X174476326Y-74449858D01*
X174477500Y-74473750D01*
X174477500Y-75386250D01*
X174476326Y-75410142D01*
X174472816Y-75433803D01*
X174467004Y-75457007D01*
X174458946Y-75479529D01*
X174448718Y-75501153D01*
X174436421Y-75521670D01*
X174422171Y-75540883D01*
X174406107Y-75558607D01*
X174388383Y-75574671D01*
X174369170Y-75588921D01*
X174348653Y-75601218D01*
X174327029Y-75611446D01*
X174304507Y-75619504D01*
X174281303Y-75625316D01*
X174257642Y-75628826D01*
X174233750Y-75630000D01*
X173746250Y-75630000D01*
X173722358Y-75628826D01*
X173698697Y-75625316D01*
X173675493Y-75619504D01*
X173652971Y-75611446D01*
X173631347Y-75601218D01*
X173610830Y-75588921D01*
X173591617Y-75574671D01*
X173573893Y-75558607D01*
X173557829Y-75540883D01*
X173543579Y-75521670D01*
X173531282Y-75501153D01*
X173521054Y-75479529D01*
X173512996Y-75457007D01*
X173507184Y-75433803D01*
X173503674Y-75410142D01*
X173502500Y-75386250D01*
X173502500Y-74473750D01*
X173503674Y-74449858D01*
X173507184Y-74426197D01*
X173512996Y-74402993D01*
X173521054Y-74380471D01*
X173531282Y-74358847D01*
X173543579Y-74338330D01*
X173557829Y-74319117D01*
X173573893Y-74301393D01*
X173591617Y-74285329D01*
X173610830Y-74271079D01*
X173631347Y-74258782D01*
X173652971Y-74248554D01*
X173675493Y-74240496D01*
X173698697Y-74234684D01*
X173722358Y-74231174D01*
X173746250Y-74230000D01*
X174233750Y-74230000D01*
X174257642Y-74231174D01*
X174257642Y-74231174D01*
G37*
D11*
X173990000Y-74930000D03*
D10*
G36*
X152880142Y-70966174D02*
G01*
X152903803Y-70969684D01*
X152927007Y-70975496D01*
X152949529Y-70983554D01*
X152971153Y-70993782D01*
X152991670Y-71006079D01*
X153010883Y-71020329D01*
X153028607Y-71036393D01*
X153044671Y-71054117D01*
X153058921Y-71073330D01*
X153071218Y-71093847D01*
X153081446Y-71115471D01*
X153089504Y-71137993D01*
X153095316Y-71161197D01*
X153098826Y-71184858D01*
X153100000Y-71208750D01*
X153100000Y-71696250D01*
X153098826Y-71720142D01*
X153095316Y-71743803D01*
X153089504Y-71767007D01*
X153081446Y-71789529D01*
X153071218Y-71811153D01*
X153058921Y-71831670D01*
X153044671Y-71850883D01*
X153028607Y-71868607D01*
X153010883Y-71884671D01*
X152991670Y-71898921D01*
X152971153Y-71911218D01*
X152949529Y-71921446D01*
X152927007Y-71929504D01*
X152903803Y-71935316D01*
X152880142Y-71938826D01*
X152856250Y-71940000D01*
X151943750Y-71940000D01*
X151919858Y-71938826D01*
X151896197Y-71935316D01*
X151872993Y-71929504D01*
X151850471Y-71921446D01*
X151828847Y-71911218D01*
X151808330Y-71898921D01*
X151789117Y-71884671D01*
X151771393Y-71868607D01*
X151755329Y-71850883D01*
X151741079Y-71831670D01*
X151728782Y-71811153D01*
X151718554Y-71789529D01*
X151710496Y-71767007D01*
X151704684Y-71743803D01*
X151701174Y-71720142D01*
X151700000Y-71696250D01*
X151700000Y-71208750D01*
X151701174Y-71184858D01*
X151704684Y-71161197D01*
X151710496Y-71137993D01*
X151718554Y-71115471D01*
X151728782Y-71093847D01*
X151741079Y-71073330D01*
X151755329Y-71054117D01*
X151771393Y-71036393D01*
X151789117Y-71020329D01*
X151808330Y-71006079D01*
X151828847Y-70993782D01*
X151850471Y-70983554D01*
X151872993Y-70975496D01*
X151896197Y-70969684D01*
X151919858Y-70966174D01*
X151943750Y-70965000D01*
X152856250Y-70965000D01*
X152880142Y-70966174D01*
X152880142Y-70966174D01*
G37*
D11*
X152400000Y-71452500D03*
D10*
G36*
X152880142Y-72841174D02*
G01*
X152903803Y-72844684D01*
X152927007Y-72850496D01*
X152949529Y-72858554D01*
X152971153Y-72868782D01*
X152991670Y-72881079D01*
X153010883Y-72895329D01*
X153028607Y-72911393D01*
X153044671Y-72929117D01*
X153058921Y-72948330D01*
X153071218Y-72968847D01*
X153081446Y-72990471D01*
X153089504Y-73012993D01*
X153095316Y-73036197D01*
X153098826Y-73059858D01*
X153100000Y-73083750D01*
X153100000Y-73571250D01*
X153098826Y-73595142D01*
X153095316Y-73618803D01*
X153089504Y-73642007D01*
X153081446Y-73664529D01*
X153071218Y-73686153D01*
X153058921Y-73706670D01*
X153044671Y-73725883D01*
X153028607Y-73743607D01*
X153010883Y-73759671D01*
X152991670Y-73773921D01*
X152971153Y-73786218D01*
X152949529Y-73796446D01*
X152927007Y-73804504D01*
X152903803Y-73810316D01*
X152880142Y-73813826D01*
X152856250Y-73815000D01*
X151943750Y-73815000D01*
X151919858Y-73813826D01*
X151896197Y-73810316D01*
X151872993Y-73804504D01*
X151850471Y-73796446D01*
X151828847Y-73786218D01*
X151808330Y-73773921D01*
X151789117Y-73759671D01*
X151771393Y-73743607D01*
X151755329Y-73725883D01*
X151741079Y-73706670D01*
X151728782Y-73686153D01*
X151718554Y-73664529D01*
X151710496Y-73642007D01*
X151704684Y-73618803D01*
X151701174Y-73595142D01*
X151700000Y-73571250D01*
X151700000Y-73083750D01*
X151701174Y-73059858D01*
X151704684Y-73036197D01*
X151710496Y-73012993D01*
X151718554Y-72990471D01*
X151728782Y-72968847D01*
X151741079Y-72948330D01*
X151755329Y-72929117D01*
X151771393Y-72911393D01*
X151789117Y-72895329D01*
X151808330Y-72881079D01*
X151828847Y-72868782D01*
X151850471Y-72858554D01*
X151872993Y-72850496D01*
X151896197Y-72844684D01*
X151919858Y-72841174D01*
X151943750Y-72840000D01*
X152856250Y-72840000D01*
X152880142Y-72841174D01*
X152880142Y-72841174D01*
G37*
D11*
X152400000Y-73327500D03*
D10*
G36*
X172382642Y-70421174D02*
G01*
X172406303Y-70424684D01*
X172429507Y-70430496D01*
X172452029Y-70438554D01*
X172473653Y-70448782D01*
X172494170Y-70461079D01*
X172513383Y-70475329D01*
X172531107Y-70491393D01*
X172547171Y-70509117D01*
X172561421Y-70528330D01*
X172573718Y-70548847D01*
X172583946Y-70570471D01*
X172592004Y-70592993D01*
X172597816Y-70616197D01*
X172601326Y-70639858D01*
X172602500Y-70663750D01*
X172602500Y-71576250D01*
X172601326Y-71600142D01*
X172597816Y-71623803D01*
X172592004Y-71647007D01*
X172583946Y-71669529D01*
X172573718Y-71691153D01*
X172561421Y-71711670D01*
X172547171Y-71730883D01*
X172531107Y-71748607D01*
X172513383Y-71764671D01*
X172494170Y-71778921D01*
X172473653Y-71791218D01*
X172452029Y-71801446D01*
X172429507Y-71809504D01*
X172406303Y-71815316D01*
X172382642Y-71818826D01*
X172358750Y-71820000D01*
X171871250Y-71820000D01*
X171847358Y-71818826D01*
X171823697Y-71815316D01*
X171800493Y-71809504D01*
X171777971Y-71801446D01*
X171756347Y-71791218D01*
X171735830Y-71778921D01*
X171716617Y-71764671D01*
X171698893Y-71748607D01*
X171682829Y-71730883D01*
X171668579Y-71711670D01*
X171656282Y-71691153D01*
X171646054Y-71669529D01*
X171637996Y-71647007D01*
X171632184Y-71623803D01*
X171628674Y-71600142D01*
X171627500Y-71576250D01*
X171627500Y-70663750D01*
X171628674Y-70639858D01*
X171632184Y-70616197D01*
X171637996Y-70592993D01*
X171646054Y-70570471D01*
X171656282Y-70548847D01*
X171668579Y-70528330D01*
X171682829Y-70509117D01*
X171698893Y-70491393D01*
X171716617Y-70475329D01*
X171735830Y-70461079D01*
X171756347Y-70448782D01*
X171777971Y-70438554D01*
X171800493Y-70430496D01*
X171823697Y-70424684D01*
X171847358Y-70421174D01*
X171871250Y-70420000D01*
X172358750Y-70420000D01*
X172382642Y-70421174D01*
X172382642Y-70421174D01*
G37*
D11*
X172115000Y-71120000D03*
D10*
G36*
X174257642Y-70421174D02*
G01*
X174281303Y-70424684D01*
X174304507Y-70430496D01*
X174327029Y-70438554D01*
X174348653Y-70448782D01*
X174369170Y-70461079D01*
X174388383Y-70475329D01*
X174406107Y-70491393D01*
X174422171Y-70509117D01*
X174436421Y-70528330D01*
X174448718Y-70548847D01*
X174458946Y-70570471D01*
X174467004Y-70592993D01*
X174472816Y-70616197D01*
X174476326Y-70639858D01*
X174477500Y-70663750D01*
X174477500Y-71576250D01*
X174476326Y-71600142D01*
X174472816Y-71623803D01*
X174467004Y-71647007D01*
X174458946Y-71669529D01*
X174448718Y-71691153D01*
X174436421Y-71711670D01*
X174422171Y-71730883D01*
X174406107Y-71748607D01*
X174388383Y-71764671D01*
X174369170Y-71778921D01*
X174348653Y-71791218D01*
X174327029Y-71801446D01*
X174304507Y-71809504D01*
X174281303Y-71815316D01*
X174257642Y-71818826D01*
X174233750Y-71820000D01*
X173746250Y-71820000D01*
X173722358Y-71818826D01*
X173698697Y-71815316D01*
X173675493Y-71809504D01*
X173652971Y-71801446D01*
X173631347Y-71791218D01*
X173610830Y-71778921D01*
X173591617Y-71764671D01*
X173573893Y-71748607D01*
X173557829Y-71730883D01*
X173543579Y-71711670D01*
X173531282Y-71691153D01*
X173521054Y-71669529D01*
X173512996Y-71647007D01*
X173507184Y-71623803D01*
X173503674Y-71600142D01*
X173502500Y-71576250D01*
X173502500Y-70663750D01*
X173503674Y-70639858D01*
X173507184Y-70616197D01*
X173512996Y-70592993D01*
X173521054Y-70570471D01*
X173531282Y-70548847D01*
X173543579Y-70528330D01*
X173557829Y-70509117D01*
X173573893Y-70491393D01*
X173591617Y-70475329D01*
X173610830Y-70461079D01*
X173631347Y-70448782D01*
X173652971Y-70438554D01*
X173675493Y-70430496D01*
X173698697Y-70424684D01*
X173722358Y-70421174D01*
X173746250Y-70420000D01*
X174233750Y-70420000D01*
X174257642Y-70421174D01*
X174257642Y-70421174D01*
G37*
D11*
X173990000Y-71120000D03*
D10*
G36*
X174257642Y-78041174D02*
G01*
X174281303Y-78044684D01*
X174304507Y-78050496D01*
X174327029Y-78058554D01*
X174348653Y-78068782D01*
X174369170Y-78081079D01*
X174388383Y-78095329D01*
X174406107Y-78111393D01*
X174422171Y-78129117D01*
X174436421Y-78148330D01*
X174448718Y-78168847D01*
X174458946Y-78190471D01*
X174467004Y-78212993D01*
X174472816Y-78236197D01*
X174476326Y-78259858D01*
X174477500Y-78283750D01*
X174477500Y-79196250D01*
X174476326Y-79220142D01*
X174472816Y-79243803D01*
X174467004Y-79267007D01*
X174458946Y-79289529D01*
X174448718Y-79311153D01*
X174436421Y-79331670D01*
X174422171Y-79350883D01*
X174406107Y-79368607D01*
X174388383Y-79384671D01*
X174369170Y-79398921D01*
X174348653Y-79411218D01*
X174327029Y-79421446D01*
X174304507Y-79429504D01*
X174281303Y-79435316D01*
X174257642Y-79438826D01*
X174233750Y-79440000D01*
X173746250Y-79440000D01*
X173722358Y-79438826D01*
X173698697Y-79435316D01*
X173675493Y-79429504D01*
X173652971Y-79421446D01*
X173631347Y-79411218D01*
X173610830Y-79398921D01*
X173591617Y-79384671D01*
X173573893Y-79368607D01*
X173557829Y-79350883D01*
X173543579Y-79331670D01*
X173531282Y-79311153D01*
X173521054Y-79289529D01*
X173512996Y-79267007D01*
X173507184Y-79243803D01*
X173503674Y-79220142D01*
X173502500Y-79196250D01*
X173502500Y-78283750D01*
X173503674Y-78259858D01*
X173507184Y-78236197D01*
X173512996Y-78212993D01*
X173521054Y-78190471D01*
X173531282Y-78168847D01*
X173543579Y-78148330D01*
X173557829Y-78129117D01*
X173573893Y-78111393D01*
X173591617Y-78095329D01*
X173610830Y-78081079D01*
X173631347Y-78068782D01*
X173652971Y-78058554D01*
X173675493Y-78050496D01*
X173698697Y-78044684D01*
X173722358Y-78041174D01*
X173746250Y-78040000D01*
X174233750Y-78040000D01*
X174257642Y-78041174D01*
X174257642Y-78041174D01*
G37*
D11*
X173990000Y-78740000D03*
D10*
G36*
X172382642Y-78041174D02*
G01*
X172406303Y-78044684D01*
X172429507Y-78050496D01*
X172452029Y-78058554D01*
X172473653Y-78068782D01*
X172494170Y-78081079D01*
X172513383Y-78095329D01*
X172531107Y-78111393D01*
X172547171Y-78129117D01*
X172561421Y-78148330D01*
X172573718Y-78168847D01*
X172583946Y-78190471D01*
X172592004Y-78212993D01*
X172597816Y-78236197D01*
X172601326Y-78259858D01*
X172602500Y-78283750D01*
X172602500Y-79196250D01*
X172601326Y-79220142D01*
X172597816Y-79243803D01*
X172592004Y-79267007D01*
X172583946Y-79289529D01*
X172573718Y-79311153D01*
X172561421Y-79331670D01*
X172547171Y-79350883D01*
X172531107Y-79368607D01*
X172513383Y-79384671D01*
X172494170Y-79398921D01*
X172473653Y-79411218D01*
X172452029Y-79421446D01*
X172429507Y-79429504D01*
X172406303Y-79435316D01*
X172382642Y-79438826D01*
X172358750Y-79440000D01*
X171871250Y-79440000D01*
X171847358Y-79438826D01*
X171823697Y-79435316D01*
X171800493Y-79429504D01*
X171777971Y-79421446D01*
X171756347Y-79411218D01*
X171735830Y-79398921D01*
X171716617Y-79384671D01*
X171698893Y-79368607D01*
X171682829Y-79350883D01*
X171668579Y-79331670D01*
X171656282Y-79311153D01*
X171646054Y-79289529D01*
X171637996Y-79267007D01*
X171632184Y-79243803D01*
X171628674Y-79220142D01*
X171627500Y-79196250D01*
X171627500Y-78283750D01*
X171628674Y-78259858D01*
X171632184Y-78236197D01*
X171637996Y-78212993D01*
X171646054Y-78190471D01*
X171656282Y-78168847D01*
X171668579Y-78148330D01*
X171682829Y-78129117D01*
X171698893Y-78111393D01*
X171716617Y-78095329D01*
X171735830Y-78081079D01*
X171756347Y-78068782D01*
X171777971Y-78058554D01*
X171800493Y-78050496D01*
X171823697Y-78044684D01*
X171847358Y-78041174D01*
X171871250Y-78040000D01*
X172358750Y-78040000D01*
X172382642Y-78041174D01*
X172382642Y-78041174D01*
G37*
D11*
X172115000Y-78740000D03*
D10*
G36*
X166794504Y-72691204D02*
G01*
X166818773Y-72694804D01*
X166842571Y-72700765D01*
X166865671Y-72709030D01*
X166887849Y-72719520D01*
X166908893Y-72732133D01*
X166928598Y-72746747D01*
X166946777Y-72763223D01*
X166963253Y-72781402D01*
X166977867Y-72801107D01*
X166990480Y-72822151D01*
X167000970Y-72844329D01*
X167009235Y-72867429D01*
X167015196Y-72891227D01*
X167018796Y-72915496D01*
X167020000Y-72940000D01*
X167020000Y-73765000D01*
X167018796Y-73789504D01*
X167015196Y-73813773D01*
X167009235Y-73837571D01*
X167000970Y-73860671D01*
X166990480Y-73882849D01*
X166977867Y-73903893D01*
X166963253Y-73923598D01*
X166946777Y-73941777D01*
X166928598Y-73958253D01*
X166908893Y-73972867D01*
X166887849Y-73985480D01*
X166865671Y-73995970D01*
X166842571Y-74004235D01*
X166818773Y-74010196D01*
X166794504Y-74013796D01*
X166770000Y-74015000D01*
X165970000Y-74015000D01*
X165945496Y-74013796D01*
X165921227Y-74010196D01*
X165897429Y-74004235D01*
X165874329Y-73995970D01*
X165852151Y-73985480D01*
X165831107Y-73972867D01*
X165811402Y-73958253D01*
X165793223Y-73941777D01*
X165776747Y-73923598D01*
X165762133Y-73903893D01*
X165749520Y-73882849D01*
X165739030Y-73860671D01*
X165730765Y-73837571D01*
X165724804Y-73813773D01*
X165721204Y-73789504D01*
X165720000Y-73765000D01*
X165720000Y-72940000D01*
X165721204Y-72915496D01*
X165724804Y-72891227D01*
X165730765Y-72867429D01*
X165739030Y-72844329D01*
X165749520Y-72822151D01*
X165762133Y-72801107D01*
X165776747Y-72781402D01*
X165793223Y-72763223D01*
X165811402Y-72746747D01*
X165831107Y-72732133D01*
X165852151Y-72719520D01*
X165874329Y-72709030D01*
X165897429Y-72700765D01*
X165921227Y-72694804D01*
X165945496Y-72691204D01*
X165970000Y-72690000D01*
X166770000Y-72690000D01*
X166794504Y-72691204D01*
X166794504Y-72691204D01*
G37*
D12*
X166370000Y-73352500D03*
D10*
G36*
X166794504Y-70766204D02*
G01*
X166818773Y-70769804D01*
X166842571Y-70775765D01*
X166865671Y-70784030D01*
X166887849Y-70794520D01*
X166908893Y-70807133D01*
X166928598Y-70821747D01*
X166946777Y-70838223D01*
X166963253Y-70856402D01*
X166977867Y-70876107D01*
X166990480Y-70897151D01*
X167000970Y-70919329D01*
X167009235Y-70942429D01*
X167015196Y-70966227D01*
X167018796Y-70990496D01*
X167020000Y-71015000D01*
X167020000Y-71840000D01*
X167018796Y-71864504D01*
X167015196Y-71888773D01*
X167009235Y-71912571D01*
X167000970Y-71935671D01*
X166990480Y-71957849D01*
X166977867Y-71978893D01*
X166963253Y-71998598D01*
X166946777Y-72016777D01*
X166928598Y-72033253D01*
X166908893Y-72047867D01*
X166887849Y-72060480D01*
X166865671Y-72070970D01*
X166842571Y-72079235D01*
X166818773Y-72085196D01*
X166794504Y-72088796D01*
X166770000Y-72090000D01*
X165970000Y-72090000D01*
X165945496Y-72088796D01*
X165921227Y-72085196D01*
X165897429Y-72079235D01*
X165874329Y-72070970D01*
X165852151Y-72060480D01*
X165831107Y-72047867D01*
X165811402Y-72033253D01*
X165793223Y-72016777D01*
X165776747Y-71998598D01*
X165762133Y-71978893D01*
X165749520Y-71957849D01*
X165739030Y-71935671D01*
X165730765Y-71912571D01*
X165724804Y-71888773D01*
X165721204Y-71864504D01*
X165720000Y-71840000D01*
X165720000Y-71015000D01*
X165721204Y-70990496D01*
X165724804Y-70966227D01*
X165730765Y-70942429D01*
X165739030Y-70919329D01*
X165749520Y-70897151D01*
X165762133Y-70876107D01*
X165776747Y-70856402D01*
X165793223Y-70838223D01*
X165811402Y-70821747D01*
X165831107Y-70807133D01*
X165852151Y-70794520D01*
X165874329Y-70784030D01*
X165897429Y-70775765D01*
X165921227Y-70769804D01*
X165945496Y-70766204D01*
X165970000Y-70765000D01*
X166770000Y-70765000D01*
X166794504Y-70766204D01*
X166794504Y-70766204D01*
G37*
D12*
X166370000Y-71427500D03*
D10*
G36*
X145204504Y-75846204D02*
G01*
X145228773Y-75849804D01*
X145252571Y-75855765D01*
X145275671Y-75864030D01*
X145297849Y-75874520D01*
X145318893Y-75887133D01*
X145338598Y-75901747D01*
X145356777Y-75918223D01*
X145373253Y-75936402D01*
X145387867Y-75956107D01*
X145400480Y-75977151D01*
X145410970Y-75999329D01*
X145419235Y-76022429D01*
X145425196Y-76046227D01*
X145428796Y-76070496D01*
X145430000Y-76095000D01*
X145430000Y-76920000D01*
X145428796Y-76944504D01*
X145425196Y-76968773D01*
X145419235Y-76992571D01*
X145410970Y-77015671D01*
X145400480Y-77037849D01*
X145387867Y-77058893D01*
X145373253Y-77078598D01*
X145356777Y-77096777D01*
X145338598Y-77113253D01*
X145318893Y-77127867D01*
X145297849Y-77140480D01*
X145275671Y-77150970D01*
X145252571Y-77159235D01*
X145228773Y-77165196D01*
X145204504Y-77168796D01*
X145180000Y-77170000D01*
X144380000Y-77170000D01*
X144355496Y-77168796D01*
X144331227Y-77165196D01*
X144307429Y-77159235D01*
X144284329Y-77150970D01*
X144262151Y-77140480D01*
X144241107Y-77127867D01*
X144221402Y-77113253D01*
X144203223Y-77096777D01*
X144186747Y-77078598D01*
X144172133Y-77058893D01*
X144159520Y-77037849D01*
X144149030Y-77015671D01*
X144140765Y-76992571D01*
X144134804Y-76968773D01*
X144131204Y-76944504D01*
X144130000Y-76920000D01*
X144130000Y-76095000D01*
X144131204Y-76070496D01*
X144134804Y-76046227D01*
X144140765Y-76022429D01*
X144149030Y-75999329D01*
X144159520Y-75977151D01*
X144172133Y-75956107D01*
X144186747Y-75936402D01*
X144203223Y-75918223D01*
X144221402Y-75901747D01*
X144241107Y-75887133D01*
X144262151Y-75874520D01*
X144284329Y-75864030D01*
X144307429Y-75855765D01*
X144331227Y-75849804D01*
X144355496Y-75846204D01*
X144380000Y-75845000D01*
X145180000Y-75845000D01*
X145204504Y-75846204D01*
X145204504Y-75846204D01*
G37*
D12*
X144780000Y-76507500D03*
D10*
G36*
X145204504Y-77771204D02*
G01*
X145228773Y-77774804D01*
X145252571Y-77780765D01*
X145275671Y-77789030D01*
X145297849Y-77799520D01*
X145318893Y-77812133D01*
X145338598Y-77826747D01*
X145356777Y-77843223D01*
X145373253Y-77861402D01*
X145387867Y-77881107D01*
X145400480Y-77902151D01*
X145410970Y-77924329D01*
X145419235Y-77947429D01*
X145425196Y-77971227D01*
X145428796Y-77995496D01*
X145430000Y-78020000D01*
X145430000Y-78845000D01*
X145428796Y-78869504D01*
X145425196Y-78893773D01*
X145419235Y-78917571D01*
X145410970Y-78940671D01*
X145400480Y-78962849D01*
X145387867Y-78983893D01*
X145373253Y-79003598D01*
X145356777Y-79021777D01*
X145338598Y-79038253D01*
X145318893Y-79052867D01*
X145297849Y-79065480D01*
X145275671Y-79075970D01*
X145252571Y-79084235D01*
X145228773Y-79090196D01*
X145204504Y-79093796D01*
X145180000Y-79095000D01*
X144380000Y-79095000D01*
X144355496Y-79093796D01*
X144331227Y-79090196D01*
X144307429Y-79084235D01*
X144284329Y-79075970D01*
X144262151Y-79065480D01*
X144241107Y-79052867D01*
X144221402Y-79038253D01*
X144203223Y-79021777D01*
X144186747Y-79003598D01*
X144172133Y-78983893D01*
X144159520Y-78962849D01*
X144149030Y-78940671D01*
X144140765Y-78917571D01*
X144134804Y-78893773D01*
X144131204Y-78869504D01*
X144130000Y-78845000D01*
X144130000Y-78020000D01*
X144131204Y-77995496D01*
X144134804Y-77971227D01*
X144140765Y-77947429D01*
X144149030Y-77924329D01*
X144159520Y-77902151D01*
X144172133Y-77881107D01*
X144186747Y-77861402D01*
X144203223Y-77843223D01*
X144221402Y-77826747D01*
X144241107Y-77812133D01*
X144262151Y-77799520D01*
X144284329Y-77789030D01*
X144307429Y-77780765D01*
X144331227Y-77774804D01*
X144355496Y-77771204D01*
X144380000Y-77770000D01*
X145180000Y-77770000D01*
X145204504Y-77771204D01*
X145204504Y-77771204D01*
G37*
D12*
X144780000Y-78432500D03*
D10*
G36*
X145204504Y-80926204D02*
G01*
X145228773Y-80929804D01*
X145252571Y-80935765D01*
X145275671Y-80944030D01*
X145297849Y-80954520D01*
X145318893Y-80967133D01*
X145338598Y-80981747D01*
X145356777Y-80998223D01*
X145373253Y-81016402D01*
X145387867Y-81036107D01*
X145400480Y-81057151D01*
X145410970Y-81079329D01*
X145419235Y-81102429D01*
X145425196Y-81126227D01*
X145428796Y-81150496D01*
X145430000Y-81175000D01*
X145430000Y-82000000D01*
X145428796Y-82024504D01*
X145425196Y-82048773D01*
X145419235Y-82072571D01*
X145410970Y-82095671D01*
X145400480Y-82117849D01*
X145387867Y-82138893D01*
X145373253Y-82158598D01*
X145356777Y-82176777D01*
X145338598Y-82193253D01*
X145318893Y-82207867D01*
X145297849Y-82220480D01*
X145275671Y-82230970D01*
X145252571Y-82239235D01*
X145228773Y-82245196D01*
X145204504Y-82248796D01*
X145180000Y-82250000D01*
X144380000Y-82250000D01*
X144355496Y-82248796D01*
X144331227Y-82245196D01*
X144307429Y-82239235D01*
X144284329Y-82230970D01*
X144262151Y-82220480D01*
X144241107Y-82207867D01*
X144221402Y-82193253D01*
X144203223Y-82176777D01*
X144186747Y-82158598D01*
X144172133Y-82138893D01*
X144159520Y-82117849D01*
X144149030Y-82095671D01*
X144140765Y-82072571D01*
X144134804Y-82048773D01*
X144131204Y-82024504D01*
X144130000Y-82000000D01*
X144130000Y-81175000D01*
X144131204Y-81150496D01*
X144134804Y-81126227D01*
X144140765Y-81102429D01*
X144149030Y-81079329D01*
X144159520Y-81057151D01*
X144172133Y-81036107D01*
X144186747Y-81016402D01*
X144203223Y-80998223D01*
X144221402Y-80981747D01*
X144241107Y-80967133D01*
X144262151Y-80954520D01*
X144284329Y-80944030D01*
X144307429Y-80935765D01*
X144331227Y-80929804D01*
X144355496Y-80926204D01*
X144380000Y-80925000D01*
X145180000Y-80925000D01*
X145204504Y-80926204D01*
X145204504Y-80926204D01*
G37*
D12*
X144780000Y-81587500D03*
D10*
G36*
X145204504Y-82851204D02*
G01*
X145228773Y-82854804D01*
X145252571Y-82860765D01*
X145275671Y-82869030D01*
X145297849Y-82879520D01*
X145318893Y-82892133D01*
X145338598Y-82906747D01*
X145356777Y-82923223D01*
X145373253Y-82941402D01*
X145387867Y-82961107D01*
X145400480Y-82982151D01*
X145410970Y-83004329D01*
X145419235Y-83027429D01*
X145425196Y-83051227D01*
X145428796Y-83075496D01*
X145430000Y-83100000D01*
X145430000Y-83925000D01*
X145428796Y-83949504D01*
X145425196Y-83973773D01*
X145419235Y-83997571D01*
X145410970Y-84020671D01*
X145400480Y-84042849D01*
X145387867Y-84063893D01*
X145373253Y-84083598D01*
X145356777Y-84101777D01*
X145338598Y-84118253D01*
X145318893Y-84132867D01*
X145297849Y-84145480D01*
X145275671Y-84155970D01*
X145252571Y-84164235D01*
X145228773Y-84170196D01*
X145204504Y-84173796D01*
X145180000Y-84175000D01*
X144380000Y-84175000D01*
X144355496Y-84173796D01*
X144331227Y-84170196D01*
X144307429Y-84164235D01*
X144284329Y-84155970D01*
X144262151Y-84145480D01*
X144241107Y-84132867D01*
X144221402Y-84118253D01*
X144203223Y-84101777D01*
X144186747Y-84083598D01*
X144172133Y-84063893D01*
X144159520Y-84042849D01*
X144149030Y-84020671D01*
X144140765Y-83997571D01*
X144134804Y-83973773D01*
X144131204Y-83949504D01*
X144130000Y-83925000D01*
X144130000Y-83100000D01*
X144131204Y-83075496D01*
X144134804Y-83051227D01*
X144140765Y-83027429D01*
X144149030Y-83004329D01*
X144159520Y-82982151D01*
X144172133Y-82961107D01*
X144186747Y-82941402D01*
X144203223Y-82923223D01*
X144221402Y-82906747D01*
X144241107Y-82892133D01*
X144262151Y-82879520D01*
X144284329Y-82869030D01*
X144307429Y-82860765D01*
X144331227Y-82854804D01*
X144355496Y-82851204D01*
X144380000Y-82850000D01*
X145180000Y-82850000D01*
X145204504Y-82851204D01*
X145204504Y-82851204D01*
G37*
D12*
X144780000Y-83512500D03*
D13*
X173990000Y-65215000D03*
X174640000Y-65215000D03*
X173340000Y-65215000D03*
X175290000Y-65215000D03*
X172690000Y-65215000D03*
D14*
X171190000Y-64965000D03*
X176790000Y-64965000D03*
D15*
X173990000Y-67115000D03*
D16*
X157100000Y-60270000D03*
X160400000Y-60270000D03*
X157100000Y-61270000D03*
X160400000Y-61270000D03*
X157100000Y-62270000D03*
X160400000Y-62270000D03*
X157100000Y-63270000D03*
X160400000Y-63270000D03*
X157100000Y-64270000D03*
X160400000Y-64270000D03*
X157100000Y-65270000D03*
X160400000Y-65270000D03*
X157100000Y-66270000D03*
X160400000Y-66270000D03*
X157100000Y-67270000D03*
X160400000Y-67270000D03*
X157100000Y-68270000D03*
X160400000Y-68270000D03*
X157100000Y-69270000D03*
X160400000Y-69270000D03*
D10*
G36*
X149795142Y-75501174D02*
G01*
X149818803Y-75504684D01*
X149842007Y-75510496D01*
X149864529Y-75518554D01*
X149886153Y-75528782D01*
X149906670Y-75541079D01*
X149925883Y-75555329D01*
X149943607Y-75571393D01*
X149959671Y-75589117D01*
X149973921Y-75608330D01*
X149986218Y-75628847D01*
X149996446Y-75650471D01*
X150004504Y-75672993D01*
X150010316Y-75696197D01*
X150013826Y-75719858D01*
X150015000Y-75743750D01*
X150015000Y-76656250D01*
X150013826Y-76680142D01*
X150010316Y-76703803D01*
X150004504Y-76727007D01*
X149996446Y-76749529D01*
X149986218Y-76771153D01*
X149973921Y-76791670D01*
X149959671Y-76810883D01*
X149943607Y-76828607D01*
X149925883Y-76844671D01*
X149906670Y-76858921D01*
X149886153Y-76871218D01*
X149864529Y-76881446D01*
X149842007Y-76889504D01*
X149818803Y-76895316D01*
X149795142Y-76898826D01*
X149771250Y-76900000D01*
X149283750Y-76900000D01*
X149259858Y-76898826D01*
X149236197Y-76895316D01*
X149212993Y-76889504D01*
X149190471Y-76881446D01*
X149168847Y-76871218D01*
X149148330Y-76858921D01*
X149129117Y-76844671D01*
X149111393Y-76828607D01*
X149095329Y-76810883D01*
X149081079Y-76791670D01*
X149068782Y-76771153D01*
X149058554Y-76749529D01*
X149050496Y-76727007D01*
X149044684Y-76703803D01*
X149041174Y-76680142D01*
X149040000Y-76656250D01*
X149040000Y-75743750D01*
X149041174Y-75719858D01*
X149044684Y-75696197D01*
X149050496Y-75672993D01*
X149058554Y-75650471D01*
X149068782Y-75628847D01*
X149081079Y-75608330D01*
X149095329Y-75589117D01*
X149111393Y-75571393D01*
X149129117Y-75555329D01*
X149148330Y-75541079D01*
X149168847Y-75528782D01*
X149190471Y-75518554D01*
X149212993Y-75510496D01*
X149236197Y-75504684D01*
X149259858Y-75501174D01*
X149283750Y-75500000D01*
X149771250Y-75500000D01*
X149795142Y-75501174D01*
X149795142Y-75501174D01*
G37*
D11*
X149527500Y-76200000D03*
D10*
G36*
X147920142Y-75501174D02*
G01*
X147943803Y-75504684D01*
X147967007Y-75510496D01*
X147989529Y-75518554D01*
X148011153Y-75528782D01*
X148031670Y-75541079D01*
X148050883Y-75555329D01*
X148068607Y-75571393D01*
X148084671Y-75589117D01*
X148098921Y-75608330D01*
X148111218Y-75628847D01*
X148121446Y-75650471D01*
X148129504Y-75672993D01*
X148135316Y-75696197D01*
X148138826Y-75719858D01*
X148140000Y-75743750D01*
X148140000Y-76656250D01*
X148138826Y-76680142D01*
X148135316Y-76703803D01*
X148129504Y-76727007D01*
X148121446Y-76749529D01*
X148111218Y-76771153D01*
X148098921Y-76791670D01*
X148084671Y-76810883D01*
X148068607Y-76828607D01*
X148050883Y-76844671D01*
X148031670Y-76858921D01*
X148011153Y-76871218D01*
X147989529Y-76881446D01*
X147967007Y-76889504D01*
X147943803Y-76895316D01*
X147920142Y-76898826D01*
X147896250Y-76900000D01*
X147408750Y-76900000D01*
X147384858Y-76898826D01*
X147361197Y-76895316D01*
X147337993Y-76889504D01*
X147315471Y-76881446D01*
X147293847Y-76871218D01*
X147273330Y-76858921D01*
X147254117Y-76844671D01*
X147236393Y-76828607D01*
X147220329Y-76810883D01*
X147206079Y-76791670D01*
X147193782Y-76771153D01*
X147183554Y-76749529D01*
X147175496Y-76727007D01*
X147169684Y-76703803D01*
X147166174Y-76680142D01*
X147165000Y-76656250D01*
X147165000Y-75743750D01*
X147166174Y-75719858D01*
X147169684Y-75696197D01*
X147175496Y-75672993D01*
X147183554Y-75650471D01*
X147193782Y-75628847D01*
X147206079Y-75608330D01*
X147220329Y-75589117D01*
X147236393Y-75571393D01*
X147254117Y-75555329D01*
X147273330Y-75541079D01*
X147293847Y-75528782D01*
X147315471Y-75518554D01*
X147337993Y-75510496D01*
X147361197Y-75504684D01*
X147384858Y-75501174D01*
X147408750Y-75500000D01*
X147896250Y-75500000D01*
X147920142Y-75501174D01*
X147920142Y-75501174D01*
G37*
D11*
X147652500Y-76200000D03*
D10*
G36*
X148252642Y-79311174D02*
G01*
X148276303Y-79314684D01*
X148299507Y-79320496D01*
X148322029Y-79328554D01*
X148343653Y-79338782D01*
X148364170Y-79351079D01*
X148383383Y-79365329D01*
X148401107Y-79381393D01*
X148417171Y-79399117D01*
X148431421Y-79418330D01*
X148443718Y-79438847D01*
X148453946Y-79460471D01*
X148462004Y-79482993D01*
X148467816Y-79506197D01*
X148471326Y-79529858D01*
X148472500Y-79553750D01*
X148472500Y-80466250D01*
X148471326Y-80490142D01*
X148467816Y-80513803D01*
X148462004Y-80537007D01*
X148453946Y-80559529D01*
X148443718Y-80581153D01*
X148431421Y-80601670D01*
X148417171Y-80620883D01*
X148401107Y-80638607D01*
X148383383Y-80654671D01*
X148364170Y-80668921D01*
X148343653Y-80681218D01*
X148322029Y-80691446D01*
X148299507Y-80699504D01*
X148276303Y-80705316D01*
X148252642Y-80708826D01*
X148228750Y-80710000D01*
X147741250Y-80710000D01*
X147717358Y-80708826D01*
X147693697Y-80705316D01*
X147670493Y-80699504D01*
X147647971Y-80691446D01*
X147626347Y-80681218D01*
X147605830Y-80668921D01*
X147586617Y-80654671D01*
X147568893Y-80638607D01*
X147552829Y-80620883D01*
X147538579Y-80601670D01*
X147526282Y-80581153D01*
X147516054Y-80559529D01*
X147507996Y-80537007D01*
X147502184Y-80513803D01*
X147498674Y-80490142D01*
X147497500Y-80466250D01*
X147497500Y-79553750D01*
X147498674Y-79529858D01*
X147502184Y-79506197D01*
X147507996Y-79482993D01*
X147516054Y-79460471D01*
X147526282Y-79438847D01*
X147538579Y-79418330D01*
X147552829Y-79399117D01*
X147568893Y-79381393D01*
X147586617Y-79365329D01*
X147605830Y-79351079D01*
X147626347Y-79338782D01*
X147647971Y-79328554D01*
X147670493Y-79320496D01*
X147693697Y-79314684D01*
X147717358Y-79311174D01*
X147741250Y-79310000D01*
X148228750Y-79310000D01*
X148252642Y-79311174D01*
X148252642Y-79311174D01*
G37*
D11*
X147985000Y-80010000D03*
D10*
G36*
X150127642Y-79311174D02*
G01*
X150151303Y-79314684D01*
X150174507Y-79320496D01*
X150197029Y-79328554D01*
X150218653Y-79338782D01*
X150239170Y-79351079D01*
X150258383Y-79365329D01*
X150276107Y-79381393D01*
X150292171Y-79399117D01*
X150306421Y-79418330D01*
X150318718Y-79438847D01*
X150328946Y-79460471D01*
X150337004Y-79482993D01*
X150342816Y-79506197D01*
X150346326Y-79529858D01*
X150347500Y-79553750D01*
X150347500Y-80466250D01*
X150346326Y-80490142D01*
X150342816Y-80513803D01*
X150337004Y-80537007D01*
X150328946Y-80559529D01*
X150318718Y-80581153D01*
X150306421Y-80601670D01*
X150292171Y-80620883D01*
X150276107Y-80638607D01*
X150258383Y-80654671D01*
X150239170Y-80668921D01*
X150218653Y-80681218D01*
X150197029Y-80691446D01*
X150174507Y-80699504D01*
X150151303Y-80705316D01*
X150127642Y-80708826D01*
X150103750Y-80710000D01*
X149616250Y-80710000D01*
X149592358Y-80708826D01*
X149568697Y-80705316D01*
X149545493Y-80699504D01*
X149522971Y-80691446D01*
X149501347Y-80681218D01*
X149480830Y-80668921D01*
X149461617Y-80654671D01*
X149443893Y-80638607D01*
X149427829Y-80620883D01*
X149413579Y-80601670D01*
X149401282Y-80581153D01*
X149391054Y-80559529D01*
X149382996Y-80537007D01*
X149377184Y-80513803D01*
X149373674Y-80490142D01*
X149372500Y-80466250D01*
X149372500Y-79553750D01*
X149373674Y-79529858D01*
X149377184Y-79506197D01*
X149382996Y-79482993D01*
X149391054Y-79460471D01*
X149401282Y-79438847D01*
X149413579Y-79418330D01*
X149427829Y-79399117D01*
X149443893Y-79381393D01*
X149461617Y-79365329D01*
X149480830Y-79351079D01*
X149501347Y-79338782D01*
X149522971Y-79328554D01*
X149545493Y-79320496D01*
X149568697Y-79314684D01*
X149592358Y-79311174D01*
X149616250Y-79310000D01*
X150103750Y-79310000D01*
X150127642Y-79311174D01*
X150127642Y-79311174D01*
G37*
D11*
X149860000Y-80010000D03*
D10*
G36*
X166850142Y-68698674D02*
G01*
X166873803Y-68702184D01*
X166897007Y-68707996D01*
X166919529Y-68716054D01*
X166941153Y-68726282D01*
X166961670Y-68738579D01*
X166980883Y-68752829D01*
X166998607Y-68768893D01*
X167014671Y-68786617D01*
X167028921Y-68805830D01*
X167041218Y-68826347D01*
X167051446Y-68847971D01*
X167059504Y-68870493D01*
X167065316Y-68893697D01*
X167068826Y-68917358D01*
X167070000Y-68941250D01*
X167070000Y-69428750D01*
X167068826Y-69452642D01*
X167065316Y-69476303D01*
X167059504Y-69499507D01*
X167051446Y-69522029D01*
X167041218Y-69543653D01*
X167028921Y-69564170D01*
X167014671Y-69583383D01*
X166998607Y-69601107D01*
X166980883Y-69617171D01*
X166961670Y-69631421D01*
X166941153Y-69643718D01*
X166919529Y-69653946D01*
X166897007Y-69662004D01*
X166873803Y-69667816D01*
X166850142Y-69671326D01*
X166826250Y-69672500D01*
X165913750Y-69672500D01*
X165889858Y-69671326D01*
X165866197Y-69667816D01*
X165842993Y-69662004D01*
X165820471Y-69653946D01*
X165798847Y-69643718D01*
X165778330Y-69631421D01*
X165759117Y-69617171D01*
X165741393Y-69601107D01*
X165725329Y-69583383D01*
X165711079Y-69564170D01*
X165698782Y-69543653D01*
X165688554Y-69522029D01*
X165680496Y-69499507D01*
X165674684Y-69476303D01*
X165671174Y-69452642D01*
X165670000Y-69428750D01*
X165670000Y-68941250D01*
X165671174Y-68917358D01*
X165674684Y-68893697D01*
X165680496Y-68870493D01*
X165688554Y-68847971D01*
X165698782Y-68826347D01*
X165711079Y-68805830D01*
X165725329Y-68786617D01*
X165741393Y-68768893D01*
X165759117Y-68752829D01*
X165778330Y-68738579D01*
X165798847Y-68726282D01*
X165820471Y-68716054D01*
X165842993Y-68707996D01*
X165866197Y-68702184D01*
X165889858Y-68698674D01*
X165913750Y-68697500D01*
X166826250Y-68697500D01*
X166850142Y-68698674D01*
X166850142Y-68698674D01*
G37*
D11*
X166370000Y-69185000D03*
D10*
G36*
X166850142Y-66823674D02*
G01*
X166873803Y-66827184D01*
X166897007Y-66832996D01*
X166919529Y-66841054D01*
X166941153Y-66851282D01*
X166961670Y-66863579D01*
X166980883Y-66877829D01*
X166998607Y-66893893D01*
X167014671Y-66911617D01*
X167028921Y-66930830D01*
X167041218Y-66951347D01*
X167051446Y-66972971D01*
X167059504Y-66995493D01*
X167065316Y-67018697D01*
X167068826Y-67042358D01*
X167070000Y-67066250D01*
X167070000Y-67553750D01*
X167068826Y-67577642D01*
X167065316Y-67601303D01*
X167059504Y-67624507D01*
X167051446Y-67647029D01*
X167041218Y-67668653D01*
X167028921Y-67689170D01*
X167014671Y-67708383D01*
X166998607Y-67726107D01*
X166980883Y-67742171D01*
X166961670Y-67756421D01*
X166941153Y-67768718D01*
X166919529Y-67778946D01*
X166897007Y-67787004D01*
X166873803Y-67792816D01*
X166850142Y-67796326D01*
X166826250Y-67797500D01*
X165913750Y-67797500D01*
X165889858Y-67796326D01*
X165866197Y-67792816D01*
X165842993Y-67787004D01*
X165820471Y-67778946D01*
X165798847Y-67768718D01*
X165778330Y-67756421D01*
X165759117Y-67742171D01*
X165741393Y-67726107D01*
X165725329Y-67708383D01*
X165711079Y-67689170D01*
X165698782Y-67668653D01*
X165688554Y-67647029D01*
X165680496Y-67624507D01*
X165674684Y-67601303D01*
X165671174Y-67577642D01*
X165670000Y-67553750D01*
X165670000Y-67066250D01*
X165671174Y-67042358D01*
X165674684Y-67018697D01*
X165680496Y-66995493D01*
X165688554Y-66972971D01*
X165698782Y-66951347D01*
X165711079Y-66930830D01*
X165725329Y-66911617D01*
X165741393Y-66893893D01*
X165759117Y-66877829D01*
X165778330Y-66863579D01*
X165798847Y-66851282D01*
X165820471Y-66841054D01*
X165842993Y-66832996D01*
X165866197Y-66827184D01*
X165889858Y-66823674D01*
X165913750Y-66822500D01*
X166826250Y-66822500D01*
X166850142Y-66823674D01*
X166850142Y-66823674D01*
G37*
D11*
X166370000Y-67310000D03*
D17*
X155800000Y-72010000D03*
X155800000Y-72660000D03*
X155800000Y-73310000D03*
X155800000Y-73960000D03*
X155800000Y-74600000D03*
X155800000Y-75260000D03*
X155800000Y-75900000D03*
X155800000Y-76550000D03*
X155800000Y-77200000D03*
X155800000Y-77850000D03*
X161700000Y-77850000D03*
X161700000Y-77200000D03*
X161700000Y-76550000D03*
X161700000Y-75900000D03*
X161700000Y-75260000D03*
X161700000Y-74600000D03*
X161700000Y-73960000D03*
X161700000Y-73310000D03*
X161700000Y-72660000D03*
X161700000Y-72010000D03*
D18*
X157450000Y-71980000D03*
D19*
X158750000Y-74930000D03*
D18*
X158750000Y-71980000D03*
X160050000Y-71980000D03*
X160050000Y-73455000D03*
X158750000Y-73455000D03*
X157450000Y-73455000D03*
X160050000Y-74930000D03*
X158750000Y-74930000D03*
X157450000Y-74930000D03*
X160050000Y-76405000D03*
X158750000Y-76405000D03*
X157450000Y-76405000D03*
X160050000Y-77880000D03*
X158750000Y-77880000D03*
X157450000Y-77880000D03*
D20*
X163170000Y-83820000D03*
D21*
X156870000Y-83820000D03*
X156870000Y-86120000D03*
X156870000Y-81520000D03*
D22*
X152400000Y-74930000D03*
X162560000Y-63500000D03*
X163830000Y-66040000D03*
X153670000Y-64770000D03*
X147320000Y-82550000D03*
X149860000Y-69850000D03*
X165100000Y-74930000D03*
X161290000Y-58420000D03*
X165100000Y-80010000D03*
X170180000Y-69850000D03*
D23*
X155730001Y-74530001D02*
X155800000Y-74600000D01*
X152799999Y-74530001D02*
X155730001Y-74530001D01*
X152400000Y-74930000D02*
X152799999Y-74530001D01*
X162160001Y-63100001D02*
X162560000Y-63500000D01*
X161330000Y-62270000D02*
X162160001Y-63100001D01*
X160400000Y-62270000D02*
X161330000Y-62270000D01*
X154900000Y-62270000D02*
X153670000Y-63500000D01*
X157100000Y-62270000D02*
X154900000Y-62270000D01*
X172115000Y-74930000D02*
X172115000Y-78740000D01*
X170845000Y-72390000D02*
X172115000Y-71120000D01*
X170845000Y-72803642D02*
X170845000Y-72390000D01*
X163203643Y-80444999D02*
X170845000Y-72803642D01*
X155609999Y-80444999D02*
X163203643Y-80444999D01*
X155544999Y-80509999D02*
X155609999Y-80444999D01*
X155544999Y-85044999D02*
X155544999Y-80509999D01*
X156620000Y-86120000D02*
X155544999Y-85044999D01*
X156870000Y-86120000D02*
X156620000Y-86120000D01*
X165100000Y-66040000D02*
X166370000Y-67310000D01*
X163830000Y-66040000D02*
X165100000Y-66040000D01*
X153670000Y-63500000D02*
X153670000Y-64770000D01*
X147320000Y-82550000D02*
X149860000Y-80010000D01*
X150797500Y-74930000D02*
X149527500Y-76200000D01*
X152400000Y-74930000D02*
X150797500Y-74930000D01*
X155800000Y-71535000D02*
X155800000Y-72010000D01*
X155717500Y-71452500D02*
X155800000Y-71535000D01*
X152400000Y-71452500D02*
X155717500Y-71452500D01*
X151462500Y-71452500D02*
X149860000Y-69850000D01*
X152400000Y-71452500D02*
X151462500Y-71452500D01*
X162675000Y-75260000D02*
X161700000Y-75260000D01*
X164204315Y-75260000D02*
X162675000Y-75260000D01*
X164534315Y-74930000D02*
X164204315Y-75260000D01*
X165100000Y-74930000D02*
X164534315Y-74930000D01*
X153032500Y-73960000D02*
X155800000Y-73960000D01*
X152400000Y-73327500D02*
X153032500Y-73960000D01*
X161150000Y-65270000D02*
X160400000Y-65270000D01*
X158350000Y-65270000D02*
X157100000Y-65270000D01*
X158350000Y-65270000D02*
X160400000Y-65270000D01*
X157100000Y-65270000D02*
X157100000Y-64270000D01*
X159150000Y-63270000D02*
X160400000Y-63270000D01*
X158850000Y-63270000D02*
X159150000Y-63270000D01*
X157850000Y-64270000D02*
X158850000Y-63270000D01*
X157100000Y-64270000D02*
X157850000Y-64270000D01*
X157850000Y-61270000D02*
X157100000Y-61270000D01*
X158850000Y-62270000D02*
X157850000Y-61270000D01*
X158850000Y-63270000D02*
X158850000Y-62270000D01*
X159650000Y-61270000D02*
X160400000Y-61270000D01*
X158850000Y-62070000D02*
X159650000Y-61270000D01*
X158850000Y-62270000D02*
X158850000Y-62070000D01*
X160400000Y-61270000D02*
X160400000Y-60270000D01*
X160400000Y-59310000D02*
X161290000Y-58420000D01*
X160400000Y-60270000D02*
X160400000Y-59310000D01*
X163590000Y-81520000D02*
X165100000Y-80010000D01*
X156870000Y-81520000D02*
X163590000Y-81520000D01*
X173990000Y-67115000D02*
X174540000Y-67115000D01*
X176540000Y-65215000D02*
X176790000Y-64965000D01*
X175290000Y-65215000D02*
X176540000Y-65215000D01*
X173990000Y-78740000D02*
X173990000Y-74930000D01*
X173990000Y-74930000D02*
X173990000Y-71120000D01*
X175290000Y-69820000D02*
X175290000Y-65215000D01*
X173990000Y-71120000D02*
X175290000Y-69820000D01*
X166370000Y-74115000D02*
X166370000Y-73352500D01*
X166370000Y-74733002D02*
X166370000Y-74115000D01*
X165353011Y-75749991D02*
X166370000Y-74733002D01*
X163643599Y-75749991D02*
X165353011Y-75749991D01*
X163493590Y-75900000D02*
X163643599Y-75749991D01*
X161700000Y-75900000D02*
X163493590Y-75900000D01*
X166370000Y-71427500D02*
X166370000Y-69185000D01*
X147345000Y-76507500D02*
X147652500Y-76200000D01*
X144780000Y-76507500D02*
X147345000Y-76507500D01*
X144780000Y-78432500D02*
X144780000Y-81587500D01*
X154825000Y-75260000D02*
X155800000Y-75260000D01*
X144780000Y-78432500D02*
X151652500Y-78432500D01*
X151652500Y-78432500D02*
X154825000Y-75260000D01*
X147985000Y-80307500D02*
X147985000Y-80010000D01*
X144780000Y-83512500D02*
X147985000Y-80307500D01*
X156870000Y-83820000D02*
X163170000Y-83820000D01*
X163170000Y-82920000D02*
X163170000Y-83820000D01*
X164420000Y-81670000D02*
X163170000Y-82920000D01*
X165609350Y-81670000D02*
X164420000Y-81670000D01*
X172927510Y-70428160D02*
X172927510Y-71811840D01*
X172564990Y-70065640D02*
X172927510Y-70428160D01*
X172564990Y-66752559D02*
X172564990Y-70065640D01*
X172690000Y-66627549D02*
X172564990Y-66752559D01*
X172690000Y-65215000D02*
X172690000Y-66627549D01*
X168653669Y-78625681D02*
X165609350Y-81670000D01*
X168653669Y-76085681D02*
X168653669Y-78625681D01*
X172927510Y-71811840D02*
X168653669Y-76085681D01*
X162675000Y-72660000D02*
X161700000Y-72660000D01*
X162750001Y-72584999D02*
X162675000Y-72660000D01*
X162750001Y-69870001D02*
X162750001Y-72584999D01*
X161150000Y-68270000D02*
X162750001Y-69870001D01*
X160400000Y-68270000D02*
X161150000Y-68270000D01*
X161700000Y-72010000D02*
X161304998Y-72010000D01*
X160400000Y-70710000D02*
X161700000Y-72010000D01*
X160400000Y-69270000D02*
X160400000Y-70710000D01*
X154825000Y-77850000D02*
X155800000Y-77850000D01*
X146684980Y-85990020D02*
X154825000Y-77850000D01*
X141867200Y-85990020D02*
X146684980Y-85990020D01*
X157850000Y-67270000D02*
X158274999Y-67694999D01*
X157100000Y-67270000D02*
X157850000Y-67270000D01*
X158274999Y-67694999D02*
X149669179Y-67694999D01*
X149669179Y-67694999D02*
X141339980Y-76024198D01*
X141339980Y-76024198D02*
X141339981Y-85462801D01*
X141339981Y-85462801D02*
X141867200Y-85990020D01*
X150457770Y-66270000D02*
X157100000Y-66270000D01*
X147784971Y-67750027D02*
X147784971Y-68942799D01*
X161700000Y-77850000D02*
X165162232Y-77850000D01*
X165162232Y-77850000D02*
X168295030Y-74717202D01*
X168295030Y-74717202D02*
X168295030Y-64352028D01*
X168295030Y-64352028D02*
X161638001Y-57694999D01*
X161638001Y-57694999D02*
X157839999Y-57694999D01*
X147784971Y-68942799D02*
X150457770Y-66270000D01*
X157839999Y-57694999D02*
X147784971Y-67750027D01*
X161150000Y-66270000D02*
X160400000Y-66270000D01*
X162105001Y-65314999D02*
X161150000Y-66270000D01*
X166718001Y-65314999D02*
X162105001Y-65314999D01*
X167845020Y-66442018D02*
X166718001Y-65314999D01*
X167845020Y-74530802D02*
X167845020Y-66442018D01*
X165175822Y-77200000D02*
X167845020Y-74530802D01*
X161700000Y-77200000D02*
X165175822Y-77200000D01*
X161150000Y-67270000D02*
X161190000Y-67310000D01*
X160400000Y-67270000D02*
X161150000Y-67270000D01*
X161650000Y-67270000D02*
X160400000Y-67270000D01*
X162752490Y-68372490D02*
X161650000Y-67270000D01*
X167395010Y-68705660D02*
X167061840Y-68372490D01*
X167395010Y-74344402D02*
X167395010Y-68705660D01*
X163830000Y-76200000D02*
X165539411Y-76200001D01*
X165539411Y-76200001D02*
X167395010Y-74344402D01*
X163480000Y-76550000D02*
X163830000Y-76200000D01*
X167061840Y-68372490D02*
X162752490Y-68372490D01*
X161700000Y-76550000D02*
X163480000Y-76550000D01*
X146284350Y-85090000D02*
X154824350Y-76550000D01*
X157100000Y-69270000D02*
X150353002Y-69270000D01*
X150353002Y-69270000D02*
X150208001Y-69124999D01*
X150208001Y-69124999D02*
X149511999Y-69124999D01*
X149511999Y-69124999D02*
X142240000Y-76396998D01*
X154825000Y-76550000D02*
X155800000Y-76550000D01*
X142240000Y-76396998D02*
X142240000Y-85090000D01*
X154824350Y-76550000D02*
X154825000Y-76550000D01*
X142240000Y-85090000D02*
X146284350Y-85090000D01*
X155700001Y-77299999D02*
X155800000Y-77200000D01*
X154825000Y-77200000D02*
X155800000Y-77200000D01*
X157100000Y-68270000D02*
X149730588Y-68270000D01*
X149730588Y-68270000D02*
X141789990Y-76210598D01*
X141789990Y-76210598D02*
X141789990Y-85276400D01*
X141789990Y-85276400D02*
X142053600Y-85540010D01*
X142053600Y-85540010D02*
X146484990Y-85540010D01*
X146484990Y-85540010D02*
X154825000Y-77200000D01*
D24*
G36*
X147273974Y-67186223D02*
G01*
X147244970Y-67210026D01*
X147201887Y-67262523D01*
X147149997Y-67325751D01*
X147106436Y-67407247D01*
X147079425Y-67457781D01*
X147035968Y-67601042D01*
X147024971Y-67712695D01*
X147024971Y-67712705D01*
X147021295Y-67750027D01*
X147024971Y-67787350D01*
X147024972Y-68905467D01*
X147021295Y-68942799D01*
X147024972Y-68980132D01*
X147035969Y-69091785D01*
X147044831Y-69120998D01*
X147073585Y-69215791D01*
X140828977Y-75460400D01*
X140799979Y-75484198D01*
X140776181Y-75513196D01*
X140705006Y-75599922D01*
X140672142Y-75661406D01*
X140634434Y-75731952D01*
X140590977Y-75875213D01*
X140579980Y-75986866D01*
X140579980Y-75986876D01*
X140576304Y-76024198D01*
X140579980Y-76061521D01*
X140579982Y-85425469D01*
X140576305Y-85462801D01*
X140579982Y-85500133D01*
X140579982Y-85500134D01*
X140583910Y-85540010D01*
X140590979Y-85611786D01*
X140634435Y-85755047D01*
X140705007Y-85887077D01*
X140746460Y-85937587D01*
X140799981Y-86002802D01*
X140828979Y-86026600D01*
X141303400Y-86501022D01*
X141327199Y-86530021D01*
X141442924Y-86624994D01*
X141574953Y-86695566D01*
X141718214Y-86739023D01*
X141829867Y-86750020D01*
X141829876Y-86750020D01*
X141867199Y-86753696D01*
X141904522Y-86750020D01*
X146647658Y-86750020D01*
X146684980Y-86753696D01*
X146722302Y-86750020D01*
X146722313Y-86750020D01*
X146833966Y-86739023D01*
X146977227Y-86695566D01*
X147109256Y-86624994D01*
X147224981Y-86530021D01*
X147248784Y-86501017D01*
X155040161Y-78709641D01*
X155075000Y-78713072D01*
X156525000Y-78713072D01*
X156649482Y-78700812D01*
X156674433Y-78693243D01*
X156695506Y-78710537D01*
X156805820Y-78769502D01*
X156925518Y-78805812D01*
X157050000Y-78818072D01*
X160450000Y-78818072D01*
X160574482Y-78805812D01*
X160694180Y-78769502D01*
X160804494Y-78710537D01*
X160825567Y-78693243D01*
X160850518Y-78700812D01*
X160975000Y-78713072D01*
X162425000Y-78713072D01*
X162549482Y-78700812D01*
X162669180Y-78664502D01*
X162771144Y-78610000D01*
X165124910Y-78610000D01*
X165162232Y-78613676D01*
X165199554Y-78610000D01*
X165199565Y-78610000D01*
X165311218Y-78599003D01*
X165454479Y-78555546D01*
X165586508Y-78484974D01*
X165702233Y-78390001D01*
X165726036Y-78360997D01*
X167893669Y-76193365D01*
X167893670Y-78310878D01*
X166135000Y-80069549D01*
X166135000Y-79908061D01*
X166095226Y-79708102D01*
X166017205Y-79519744D01*
X165903937Y-79350226D01*
X165759774Y-79206063D01*
X165590256Y-79092795D01*
X165401898Y-79014774D01*
X165201939Y-78975000D01*
X164998061Y-78975000D01*
X164798102Y-79014774D01*
X164609744Y-79092795D01*
X164440226Y-79206063D01*
X164296063Y-79350226D01*
X164182795Y-79519744D01*
X164104774Y-79708102D01*
X164065000Y-79908061D01*
X164065000Y-79970198D01*
X163275199Y-80760000D01*
X158507087Y-80760000D01*
X158495812Y-80645518D01*
X158459502Y-80525820D01*
X158400537Y-80415506D01*
X158321185Y-80318815D01*
X158224494Y-80239463D01*
X158114180Y-80180498D01*
X157994482Y-80144188D01*
X157870000Y-80131928D01*
X155870000Y-80131928D01*
X155745518Y-80144188D01*
X155625820Y-80180498D01*
X155515506Y-80239463D01*
X155418815Y-80318815D01*
X155339463Y-80415506D01*
X155280498Y-80525820D01*
X155244188Y-80645518D01*
X155231928Y-80770000D01*
X155231928Y-82270000D01*
X155244188Y-82394482D01*
X155280498Y-82514180D01*
X155339463Y-82624494D01*
X155376809Y-82670000D01*
X155339463Y-82715506D01*
X155280498Y-82825820D01*
X155244188Y-82945518D01*
X155231928Y-83070000D01*
X155231928Y-84570000D01*
X155244188Y-84694482D01*
X155280498Y-84814180D01*
X155339463Y-84924494D01*
X155376809Y-84970000D01*
X155339463Y-85015506D01*
X155280498Y-85125820D01*
X155244188Y-85245518D01*
X155231928Y-85370000D01*
X155235000Y-85834250D01*
X155393750Y-85993000D01*
X156743000Y-85993000D01*
X156743000Y-85973000D01*
X156997000Y-85973000D01*
X156997000Y-85993000D01*
X158346250Y-85993000D01*
X158505000Y-85834250D01*
X158508072Y-85370000D01*
X158495812Y-85245518D01*
X158459502Y-85125820D01*
X158400537Y-85015506D01*
X158363191Y-84970000D01*
X158400537Y-84924494D01*
X158459502Y-84814180D01*
X158495812Y-84694482D01*
X158507087Y-84580000D01*
X161531928Y-84580000D01*
X161531928Y-85720000D01*
X161544188Y-85844482D01*
X161580498Y-85964180D01*
X161639463Y-86074494D01*
X161718815Y-86171185D01*
X161815506Y-86250537D01*
X161925820Y-86309502D01*
X162045518Y-86345812D01*
X162170000Y-86358072D01*
X164170000Y-86358072D01*
X164294482Y-86345812D01*
X164414180Y-86309502D01*
X164524494Y-86250537D01*
X164621185Y-86171185D01*
X164700537Y-86074494D01*
X164759502Y-85964180D01*
X164795812Y-85844482D01*
X164808072Y-85720000D01*
X164808072Y-82430000D01*
X165572028Y-82430000D01*
X165609350Y-82433676D01*
X165646672Y-82430000D01*
X165646683Y-82430000D01*
X165758336Y-82419003D01*
X165901597Y-82375546D01*
X166033626Y-82304974D01*
X166149351Y-82210001D01*
X166173154Y-82180997D01*
X168914151Y-79440000D01*
X170989428Y-79440000D01*
X171001688Y-79564482D01*
X171037998Y-79684180D01*
X171096963Y-79794494D01*
X171176315Y-79891185D01*
X171273006Y-79970537D01*
X171383320Y-80029502D01*
X171503018Y-80065812D01*
X171627500Y-80078072D01*
X171829250Y-80075000D01*
X171988000Y-79916250D01*
X171988000Y-78867000D01*
X171151250Y-78867000D01*
X170992500Y-79025750D01*
X170989428Y-79440000D01*
X168914151Y-79440000D01*
X169164672Y-79189480D01*
X169193670Y-79165682D01*
X169288643Y-79049957D01*
X169359215Y-78917928D01*
X169402672Y-78774667D01*
X169413669Y-78663014D01*
X169413669Y-78663005D01*
X169417345Y-78625682D01*
X169413669Y-78588359D01*
X169413669Y-78040000D01*
X170989428Y-78040000D01*
X170992500Y-78454250D01*
X171151250Y-78613000D01*
X171988000Y-78613000D01*
X171988000Y-77563750D01*
X171829250Y-77405000D01*
X171627500Y-77401928D01*
X171503018Y-77414188D01*
X171383320Y-77450498D01*
X171273006Y-77509463D01*
X171176315Y-77588815D01*
X171096963Y-77685506D01*
X171037998Y-77795820D01*
X171001688Y-77915518D01*
X170989428Y-78040000D01*
X169413669Y-78040000D01*
X169413669Y-76400482D01*
X170184151Y-75630000D01*
X170989428Y-75630000D01*
X171001688Y-75754482D01*
X171037998Y-75874180D01*
X171096963Y-75984494D01*
X171176315Y-76081185D01*
X171273006Y-76160537D01*
X171383320Y-76219502D01*
X171503018Y-76255812D01*
X171627500Y-76268072D01*
X171829250Y-76265000D01*
X171988000Y-76106250D01*
X171988000Y-75057000D01*
X171151250Y-75057000D01*
X170992500Y-75215750D01*
X170989428Y-75630000D01*
X170184151Y-75630000D01*
X171081201Y-74732951D01*
X171151250Y-74803000D01*
X171988000Y-74803000D01*
X171988000Y-74783000D01*
X172242000Y-74783000D01*
X172242000Y-74803000D01*
X172262000Y-74803000D01*
X172262000Y-75057000D01*
X172242000Y-75057000D01*
X172242000Y-76106250D01*
X172400750Y-76265000D01*
X172602500Y-76268072D01*
X172726982Y-76255812D01*
X172846680Y-76219502D01*
X172956994Y-76160537D01*
X173053685Y-76081185D01*
X173117492Y-76003436D01*
X173122708Y-76009792D01*
X173230001Y-76097845D01*
X173230000Y-77572155D01*
X173122708Y-77660208D01*
X173117492Y-77666564D01*
X173053685Y-77588815D01*
X172956994Y-77509463D01*
X172846680Y-77450498D01*
X172726982Y-77414188D01*
X172602500Y-77401928D01*
X172400750Y-77405000D01*
X172242000Y-77563750D01*
X172242000Y-78613000D01*
X172262000Y-78613000D01*
X172262000Y-78867000D01*
X172242000Y-78867000D01*
X172242000Y-79916250D01*
X172400750Y-80075000D01*
X172602500Y-80078072D01*
X172726982Y-80065812D01*
X172846680Y-80029502D01*
X172956994Y-79970537D01*
X173053685Y-79891185D01*
X173117492Y-79813436D01*
X173122708Y-79819792D01*
X173256336Y-79929458D01*
X173408791Y-80010947D01*
X173574215Y-80061128D01*
X173746250Y-80078072D01*
X174233750Y-80078072D01*
X174405785Y-80061128D01*
X174571209Y-80010947D01*
X174723664Y-79929458D01*
X174857292Y-79819792D01*
X174966958Y-79686164D01*
X175048447Y-79533709D01*
X175098628Y-79368285D01*
X175115572Y-79196250D01*
X175115572Y-78283750D01*
X175098628Y-78111715D01*
X175048447Y-77946291D01*
X174966958Y-77793836D01*
X174857292Y-77660208D01*
X174750000Y-77572155D01*
X174750000Y-76097845D01*
X174857292Y-76009792D01*
X174966958Y-75876164D01*
X175048447Y-75723709D01*
X175098628Y-75558285D01*
X175115572Y-75386250D01*
X175115572Y-74473750D01*
X175098628Y-74301715D01*
X175048447Y-74136291D01*
X174966958Y-73983836D01*
X174857292Y-73850208D01*
X174750000Y-73762155D01*
X174750000Y-72287845D01*
X174857292Y-72199792D01*
X174966958Y-72066164D01*
X175048447Y-71913709D01*
X175098628Y-71748285D01*
X175115572Y-71576250D01*
X175115572Y-71069229D01*
X175801004Y-70383798D01*
X175830001Y-70360001D01*
X175924974Y-70244276D01*
X175995546Y-70112247D01*
X176039003Y-69968986D01*
X176050000Y-69857333D01*
X176050000Y-69857325D01*
X176053676Y-69820000D01*
X176050000Y-69782675D01*
X176050000Y-66311144D01*
X176104502Y-66209180D01*
X176134400Y-66110618D01*
X176207700Y-66132853D01*
X176381793Y-66150000D01*
X177198207Y-66150000D01*
X177372300Y-66132853D01*
X177595674Y-66065094D01*
X177801536Y-65955058D01*
X177981975Y-65806975D01*
X178130058Y-65626536D01*
X178240094Y-65420674D01*
X178307853Y-65197300D01*
X178330733Y-64965000D01*
X178307853Y-64732700D01*
X178240094Y-64509326D01*
X178130058Y-64303464D01*
X177981975Y-64123025D01*
X177801536Y-63974942D01*
X177595674Y-63864906D01*
X177372300Y-63797147D01*
X177198207Y-63780000D01*
X176381793Y-63780000D01*
X176207700Y-63797147D01*
X175984326Y-63864906D01*
X175861844Y-63930374D01*
X175759180Y-63875498D01*
X175639482Y-63839188D01*
X175515000Y-63826928D01*
X175065000Y-63826928D01*
X174965000Y-63836777D01*
X174865000Y-63826928D01*
X174415000Y-63826928D01*
X174315000Y-63836777D01*
X174215000Y-63826928D01*
X173765000Y-63826928D01*
X173665000Y-63836777D01*
X173565000Y-63826928D01*
X173115000Y-63826928D01*
X173015000Y-63836777D01*
X172915000Y-63826928D01*
X172465000Y-63826928D01*
X172340518Y-63839188D01*
X172220820Y-63875498D01*
X172118156Y-63930374D01*
X171995674Y-63864906D01*
X171772300Y-63797147D01*
X171598207Y-63780000D01*
X170781793Y-63780000D01*
X170607700Y-63797147D01*
X170384326Y-63864906D01*
X170178464Y-63974942D01*
X169998025Y-64123025D01*
X169849942Y-64303464D01*
X169739906Y-64509326D01*
X169672147Y-64732700D01*
X169649267Y-64965000D01*
X169672147Y-65197300D01*
X169739906Y-65420674D01*
X169849942Y-65626536D01*
X169998025Y-65806975D01*
X170178464Y-65955058D01*
X170384326Y-66065094D01*
X170607700Y-66132853D01*
X170781793Y-66150000D01*
X171598207Y-66150000D01*
X171772300Y-66132853D01*
X171845600Y-66110618D01*
X171875498Y-66209180D01*
X171930001Y-66311146D01*
X171930001Y-66328311D01*
X171881534Y-66418986D01*
X171859444Y-66460313D01*
X171815987Y-66603574D01*
X171804990Y-66715227D01*
X171804990Y-66715237D01*
X171801314Y-66752559D01*
X171804990Y-66789882D01*
X171804991Y-69784631D01*
X171627500Y-69781928D01*
X171503018Y-69794188D01*
X171383320Y-69830498D01*
X171273006Y-69889463D01*
X171215000Y-69937067D01*
X171215000Y-69748061D01*
X171175226Y-69548102D01*
X171097205Y-69359744D01*
X170983937Y-69190226D01*
X170839774Y-69046063D01*
X170670256Y-68932795D01*
X170481898Y-68854774D01*
X170281939Y-68815000D01*
X170078061Y-68815000D01*
X169878102Y-68854774D01*
X169689744Y-68932795D01*
X169520226Y-69046063D01*
X169376063Y-69190226D01*
X169262795Y-69359744D01*
X169184774Y-69548102D01*
X169145000Y-69748061D01*
X169145000Y-69951939D01*
X169184774Y-70151898D01*
X169262795Y-70340256D01*
X169376063Y-70509774D01*
X169520226Y-70653937D01*
X169689744Y-70767205D01*
X169878102Y-70845226D01*
X170078061Y-70885000D01*
X170281939Y-70885000D01*
X170481898Y-70845226D01*
X170670256Y-70767205D01*
X170839774Y-70653937D01*
X170983937Y-70509774D01*
X170990026Y-70500661D01*
X170992500Y-70834250D01*
X171151250Y-70993000D01*
X171988000Y-70993000D01*
X171988000Y-70973000D01*
X172167510Y-70973000D01*
X172167511Y-71267000D01*
X171988000Y-71267000D01*
X171988000Y-71247000D01*
X171151250Y-71247000D01*
X170992500Y-71405750D01*
X170989428Y-71820000D01*
X171001688Y-71944482D01*
X171037998Y-72064180D01*
X171096963Y-72174494D01*
X171176315Y-72271185D01*
X171273006Y-72350537D01*
X171299728Y-72364820D01*
X169055030Y-74609519D01*
X169055030Y-64389353D01*
X169058706Y-64352028D01*
X169055030Y-64314703D01*
X169055030Y-64314695D01*
X169044033Y-64203042D01*
X169000576Y-64059781D01*
X168930004Y-63927752D01*
X168835031Y-63812027D01*
X168806033Y-63788229D01*
X162827803Y-57810000D01*
X179037721Y-57810000D01*
X179187869Y-57824722D01*
X179279151Y-57852282D01*
X179680000Y-58653980D01*
X179680001Y-82524061D01*
X179645416Y-82963504D01*
X173313620Y-88240000D01*
X141203980Y-88240000D01*
X140402575Y-87839298D01*
X140375560Y-87752024D01*
X140360000Y-87603979D01*
X140360000Y-86870000D01*
X155231928Y-86870000D01*
X155244188Y-86994482D01*
X155280498Y-87114180D01*
X155339463Y-87224494D01*
X155418815Y-87321185D01*
X155515506Y-87400537D01*
X155625820Y-87459502D01*
X155745518Y-87495812D01*
X155870000Y-87508072D01*
X156584250Y-87505000D01*
X156743000Y-87346250D01*
X156743000Y-86247000D01*
X156997000Y-86247000D01*
X156997000Y-87346250D01*
X157155750Y-87505000D01*
X157870000Y-87508072D01*
X157994482Y-87495812D01*
X158114180Y-87459502D01*
X158224494Y-87400537D01*
X158321185Y-87321185D01*
X158400537Y-87224494D01*
X158459502Y-87114180D01*
X158495812Y-86994482D01*
X158508072Y-86870000D01*
X158505000Y-86405750D01*
X158346250Y-86247000D01*
X156997000Y-86247000D01*
X156743000Y-86247000D01*
X155393750Y-86247000D01*
X155235000Y-86405750D01*
X155231928Y-86870000D01*
X140360000Y-86870000D01*
X140360000Y-64289606D01*
X146839606Y-57810000D01*
X156650196Y-57810000D01*
X147273974Y-67186223D01*
X147273974Y-67186223D01*
G37*
X147273974Y-67186223D02*
X147244970Y-67210026D01*
X147201887Y-67262523D01*
X147149997Y-67325751D01*
X147106436Y-67407247D01*
X147079425Y-67457781D01*
X147035968Y-67601042D01*
X147024971Y-67712695D01*
X147024971Y-67712705D01*
X147021295Y-67750027D01*
X147024971Y-67787350D01*
X147024972Y-68905467D01*
X147021295Y-68942799D01*
X147024972Y-68980132D01*
X147035969Y-69091785D01*
X147044831Y-69120998D01*
X147073585Y-69215791D01*
X140828977Y-75460400D01*
X140799979Y-75484198D01*
X140776181Y-75513196D01*
X140705006Y-75599922D01*
X140672142Y-75661406D01*
X140634434Y-75731952D01*
X140590977Y-75875213D01*
X140579980Y-75986866D01*
X140579980Y-75986876D01*
X140576304Y-76024198D01*
X140579980Y-76061521D01*
X140579982Y-85425469D01*
X140576305Y-85462801D01*
X140579982Y-85500133D01*
X140579982Y-85500134D01*
X140583910Y-85540010D01*
X140590979Y-85611786D01*
X140634435Y-85755047D01*
X140705007Y-85887077D01*
X140746460Y-85937587D01*
X140799981Y-86002802D01*
X140828979Y-86026600D01*
X141303400Y-86501022D01*
X141327199Y-86530021D01*
X141442924Y-86624994D01*
X141574953Y-86695566D01*
X141718214Y-86739023D01*
X141829867Y-86750020D01*
X141829876Y-86750020D01*
X141867199Y-86753696D01*
X141904522Y-86750020D01*
X146647658Y-86750020D01*
X146684980Y-86753696D01*
X146722302Y-86750020D01*
X146722313Y-86750020D01*
X146833966Y-86739023D01*
X146977227Y-86695566D01*
X147109256Y-86624994D01*
X147224981Y-86530021D01*
X147248784Y-86501017D01*
X155040161Y-78709641D01*
X155075000Y-78713072D01*
X156525000Y-78713072D01*
X156649482Y-78700812D01*
X156674433Y-78693243D01*
X156695506Y-78710537D01*
X156805820Y-78769502D01*
X156925518Y-78805812D01*
X157050000Y-78818072D01*
X160450000Y-78818072D01*
X160574482Y-78805812D01*
X160694180Y-78769502D01*
X160804494Y-78710537D01*
X160825567Y-78693243D01*
X160850518Y-78700812D01*
X160975000Y-78713072D01*
X162425000Y-78713072D01*
X162549482Y-78700812D01*
X162669180Y-78664502D01*
X162771144Y-78610000D01*
X165124910Y-78610000D01*
X165162232Y-78613676D01*
X165199554Y-78610000D01*
X165199565Y-78610000D01*
X165311218Y-78599003D01*
X165454479Y-78555546D01*
X165586508Y-78484974D01*
X165702233Y-78390001D01*
X165726036Y-78360997D01*
X167893669Y-76193365D01*
X167893670Y-78310878D01*
X166135000Y-80069549D01*
X166135000Y-79908061D01*
X166095226Y-79708102D01*
X166017205Y-79519744D01*
X165903937Y-79350226D01*
X165759774Y-79206063D01*
X165590256Y-79092795D01*
X165401898Y-79014774D01*
X165201939Y-78975000D01*
X164998061Y-78975000D01*
X164798102Y-79014774D01*
X164609744Y-79092795D01*
X164440226Y-79206063D01*
X164296063Y-79350226D01*
X164182795Y-79519744D01*
X164104774Y-79708102D01*
X164065000Y-79908061D01*
X164065000Y-79970198D01*
X163275199Y-80760000D01*
X158507087Y-80760000D01*
X158495812Y-80645518D01*
X158459502Y-80525820D01*
X158400537Y-80415506D01*
X158321185Y-80318815D01*
X158224494Y-80239463D01*
X158114180Y-80180498D01*
X157994482Y-80144188D01*
X157870000Y-80131928D01*
X155870000Y-80131928D01*
X155745518Y-80144188D01*
X155625820Y-80180498D01*
X155515506Y-80239463D01*
X155418815Y-80318815D01*
X155339463Y-80415506D01*
X155280498Y-80525820D01*
X155244188Y-80645518D01*
X155231928Y-80770000D01*
X155231928Y-82270000D01*
X155244188Y-82394482D01*
X155280498Y-82514180D01*
X155339463Y-82624494D01*
X155376809Y-82670000D01*
X155339463Y-82715506D01*
X155280498Y-82825820D01*
X155244188Y-82945518D01*
X155231928Y-83070000D01*
X155231928Y-84570000D01*
X155244188Y-84694482D01*
X155280498Y-84814180D01*
X155339463Y-84924494D01*
X155376809Y-84970000D01*
X155339463Y-85015506D01*
X155280498Y-85125820D01*
X155244188Y-85245518D01*
X155231928Y-85370000D01*
X155235000Y-85834250D01*
X155393750Y-85993000D01*
X156743000Y-85993000D01*
X156743000Y-85973000D01*
X156997000Y-85973000D01*
X156997000Y-85993000D01*
X158346250Y-85993000D01*
X158505000Y-85834250D01*
X158508072Y-85370000D01*
X158495812Y-85245518D01*
X158459502Y-85125820D01*
X158400537Y-85015506D01*
X158363191Y-84970000D01*
X158400537Y-84924494D01*
X158459502Y-84814180D01*
X158495812Y-84694482D01*
X158507087Y-84580000D01*
X161531928Y-84580000D01*
X161531928Y-85720000D01*
X161544188Y-85844482D01*
X161580498Y-85964180D01*
X161639463Y-86074494D01*
X161718815Y-86171185D01*
X161815506Y-86250537D01*
X161925820Y-86309502D01*
X162045518Y-86345812D01*
X162170000Y-86358072D01*
X164170000Y-86358072D01*
X164294482Y-86345812D01*
X164414180Y-86309502D01*
X164524494Y-86250537D01*
X164621185Y-86171185D01*
X164700537Y-86074494D01*
X164759502Y-85964180D01*
X164795812Y-85844482D01*
X164808072Y-85720000D01*
X164808072Y-82430000D01*
X165572028Y-82430000D01*
X165609350Y-82433676D01*
X165646672Y-82430000D01*
X165646683Y-82430000D01*
X165758336Y-82419003D01*
X165901597Y-82375546D01*
X166033626Y-82304974D01*
X166149351Y-82210001D01*
X166173154Y-82180997D01*
X168914151Y-79440000D01*
X170989428Y-79440000D01*
X171001688Y-79564482D01*
X171037998Y-79684180D01*
X171096963Y-79794494D01*
X171176315Y-79891185D01*
X171273006Y-79970537D01*
X171383320Y-80029502D01*
X171503018Y-80065812D01*
X171627500Y-80078072D01*
X171829250Y-80075000D01*
X171988000Y-79916250D01*
X171988000Y-78867000D01*
X171151250Y-78867000D01*
X170992500Y-79025750D01*
X170989428Y-79440000D01*
X168914151Y-79440000D01*
X169164672Y-79189480D01*
X169193670Y-79165682D01*
X169288643Y-79049957D01*
X169359215Y-78917928D01*
X169402672Y-78774667D01*
X169413669Y-78663014D01*
X169413669Y-78663005D01*
X169417345Y-78625682D01*
X169413669Y-78588359D01*
X169413669Y-78040000D01*
X170989428Y-78040000D01*
X170992500Y-78454250D01*
X171151250Y-78613000D01*
X171988000Y-78613000D01*
X171988000Y-77563750D01*
X171829250Y-77405000D01*
X171627500Y-77401928D01*
X171503018Y-77414188D01*
X171383320Y-77450498D01*
X171273006Y-77509463D01*
X171176315Y-77588815D01*
X171096963Y-77685506D01*
X171037998Y-77795820D01*
X171001688Y-77915518D01*
X170989428Y-78040000D01*
X169413669Y-78040000D01*
X169413669Y-76400482D01*
X170184151Y-75630000D01*
X170989428Y-75630000D01*
X171001688Y-75754482D01*
X171037998Y-75874180D01*
X171096963Y-75984494D01*
X171176315Y-76081185D01*
X171273006Y-76160537D01*
X171383320Y-76219502D01*
X171503018Y-76255812D01*
X171627500Y-76268072D01*
X171829250Y-76265000D01*
X171988000Y-76106250D01*
X171988000Y-75057000D01*
X171151250Y-75057000D01*
X170992500Y-75215750D01*
X170989428Y-75630000D01*
X170184151Y-75630000D01*
X171081201Y-74732951D01*
X171151250Y-74803000D01*
X171988000Y-74803000D01*
X171988000Y-74783000D01*
X172242000Y-74783000D01*
X172242000Y-74803000D01*
X172262000Y-74803000D01*
X172262000Y-75057000D01*
X172242000Y-75057000D01*
X172242000Y-76106250D01*
X172400750Y-76265000D01*
X172602500Y-76268072D01*
X172726982Y-76255812D01*
X172846680Y-76219502D01*
X172956994Y-76160537D01*
X173053685Y-76081185D01*
X173117492Y-76003436D01*
X173122708Y-76009792D01*
X173230001Y-76097845D01*
X173230000Y-77572155D01*
X173122708Y-77660208D01*
X173117492Y-77666564D01*
X173053685Y-77588815D01*
X172956994Y-77509463D01*
X172846680Y-77450498D01*
X172726982Y-77414188D01*
X172602500Y-77401928D01*
X172400750Y-77405000D01*
X172242000Y-77563750D01*
X172242000Y-78613000D01*
X172262000Y-78613000D01*
X172262000Y-78867000D01*
X172242000Y-78867000D01*
X172242000Y-79916250D01*
X172400750Y-80075000D01*
X172602500Y-80078072D01*
X172726982Y-80065812D01*
X172846680Y-80029502D01*
X172956994Y-79970537D01*
X173053685Y-79891185D01*
X173117492Y-79813436D01*
X173122708Y-79819792D01*
X173256336Y-79929458D01*
X173408791Y-80010947D01*
X173574215Y-80061128D01*
X173746250Y-80078072D01*
X174233750Y-80078072D01*
X174405785Y-80061128D01*
X174571209Y-80010947D01*
X174723664Y-79929458D01*
X174857292Y-79819792D01*
X174966958Y-79686164D01*
X175048447Y-79533709D01*
X175098628Y-79368285D01*
X175115572Y-79196250D01*
X175115572Y-78283750D01*
X175098628Y-78111715D01*
X175048447Y-77946291D01*
X174966958Y-77793836D01*
X174857292Y-77660208D01*
X174750000Y-77572155D01*
X174750000Y-76097845D01*
X174857292Y-76009792D01*
X174966958Y-75876164D01*
X175048447Y-75723709D01*
X175098628Y-75558285D01*
X175115572Y-75386250D01*
X175115572Y-74473750D01*
X175098628Y-74301715D01*
X175048447Y-74136291D01*
X174966958Y-73983836D01*
X174857292Y-73850208D01*
X174750000Y-73762155D01*
X174750000Y-72287845D01*
X174857292Y-72199792D01*
X174966958Y-72066164D01*
X175048447Y-71913709D01*
X175098628Y-71748285D01*
X175115572Y-71576250D01*
X175115572Y-71069229D01*
X175801004Y-70383798D01*
X175830001Y-70360001D01*
X175924974Y-70244276D01*
X175995546Y-70112247D01*
X176039003Y-69968986D01*
X176050000Y-69857333D01*
X176050000Y-69857325D01*
X176053676Y-69820000D01*
X176050000Y-69782675D01*
X176050000Y-66311144D01*
X176104502Y-66209180D01*
X176134400Y-66110618D01*
X176207700Y-66132853D01*
X176381793Y-66150000D01*
X177198207Y-66150000D01*
X177372300Y-66132853D01*
X177595674Y-66065094D01*
X177801536Y-65955058D01*
X177981975Y-65806975D01*
X178130058Y-65626536D01*
X178240094Y-65420674D01*
X178307853Y-65197300D01*
X178330733Y-64965000D01*
X178307853Y-64732700D01*
X178240094Y-64509326D01*
X178130058Y-64303464D01*
X177981975Y-64123025D01*
X177801536Y-63974942D01*
X177595674Y-63864906D01*
X177372300Y-63797147D01*
X177198207Y-63780000D01*
X176381793Y-63780000D01*
X176207700Y-63797147D01*
X175984326Y-63864906D01*
X175861844Y-63930374D01*
X175759180Y-63875498D01*
X175639482Y-63839188D01*
X175515000Y-63826928D01*
X175065000Y-63826928D01*
X174965000Y-63836777D01*
X174865000Y-63826928D01*
X174415000Y-63826928D01*
X174315000Y-63836777D01*
X174215000Y-63826928D01*
X173765000Y-63826928D01*
X173665000Y-63836777D01*
X173565000Y-63826928D01*
X173115000Y-63826928D01*
X173015000Y-63836777D01*
X172915000Y-63826928D01*
X172465000Y-63826928D01*
X172340518Y-63839188D01*
X172220820Y-63875498D01*
X172118156Y-63930374D01*
X171995674Y-63864906D01*
X171772300Y-63797147D01*
X171598207Y-63780000D01*
X170781793Y-63780000D01*
X170607700Y-63797147D01*
X170384326Y-63864906D01*
X170178464Y-63974942D01*
X169998025Y-64123025D01*
X169849942Y-64303464D01*
X169739906Y-64509326D01*
X169672147Y-64732700D01*
X169649267Y-64965000D01*
X169672147Y-65197300D01*
X169739906Y-65420674D01*
X169849942Y-65626536D01*
X169998025Y-65806975D01*
X170178464Y-65955058D01*
X170384326Y-66065094D01*
X170607700Y-66132853D01*
X170781793Y-66150000D01*
X171598207Y-66150000D01*
X171772300Y-66132853D01*
X171845600Y-66110618D01*
X171875498Y-66209180D01*
X171930001Y-66311146D01*
X171930001Y-66328311D01*
X171881534Y-66418986D01*
X171859444Y-66460313D01*
X171815987Y-66603574D01*
X171804990Y-66715227D01*
X171804990Y-66715237D01*
X171801314Y-66752559D01*
X171804990Y-66789882D01*
X171804991Y-69784631D01*
X171627500Y-69781928D01*
X171503018Y-69794188D01*
X171383320Y-69830498D01*
X171273006Y-69889463D01*
X171215000Y-69937067D01*
X171215000Y-69748061D01*
X171175226Y-69548102D01*
X171097205Y-69359744D01*
X170983937Y-69190226D01*
X170839774Y-69046063D01*
X170670256Y-68932795D01*
X170481898Y-68854774D01*
X170281939Y-68815000D01*
X170078061Y-68815000D01*
X169878102Y-68854774D01*
X169689744Y-68932795D01*
X169520226Y-69046063D01*
X169376063Y-69190226D01*
X169262795Y-69359744D01*
X169184774Y-69548102D01*
X169145000Y-69748061D01*
X169145000Y-69951939D01*
X169184774Y-70151898D01*
X169262795Y-70340256D01*
X169376063Y-70509774D01*
X169520226Y-70653937D01*
X169689744Y-70767205D01*
X169878102Y-70845226D01*
X170078061Y-70885000D01*
X170281939Y-70885000D01*
X170481898Y-70845226D01*
X170670256Y-70767205D01*
X170839774Y-70653937D01*
X170983937Y-70509774D01*
X170990026Y-70500661D01*
X170992500Y-70834250D01*
X171151250Y-70993000D01*
X171988000Y-70993000D01*
X171988000Y-70973000D01*
X172167510Y-70973000D01*
X172167511Y-71267000D01*
X171988000Y-71267000D01*
X171988000Y-71247000D01*
X171151250Y-71247000D01*
X170992500Y-71405750D01*
X170989428Y-71820000D01*
X171001688Y-71944482D01*
X171037998Y-72064180D01*
X171096963Y-72174494D01*
X171176315Y-72271185D01*
X171273006Y-72350537D01*
X171299728Y-72364820D01*
X169055030Y-74609519D01*
X169055030Y-64389353D01*
X169058706Y-64352028D01*
X169055030Y-64314703D01*
X169055030Y-64314695D01*
X169044033Y-64203042D01*
X169000576Y-64059781D01*
X168930004Y-63927752D01*
X168835031Y-63812027D01*
X168806033Y-63788229D01*
X162827803Y-57810000D01*
X179037721Y-57810000D01*
X179187869Y-57824722D01*
X179279151Y-57852282D01*
X179680000Y-58653980D01*
X179680001Y-82524061D01*
X179645416Y-82963504D01*
X173313620Y-88240000D01*
X141203980Y-88240000D01*
X140402575Y-87839298D01*
X140375560Y-87752024D01*
X140360000Y-87603979D01*
X140360000Y-86870000D01*
X155231928Y-86870000D01*
X155244188Y-86994482D01*
X155280498Y-87114180D01*
X155339463Y-87224494D01*
X155418815Y-87321185D01*
X155515506Y-87400537D01*
X155625820Y-87459502D01*
X155745518Y-87495812D01*
X155870000Y-87508072D01*
X156584250Y-87505000D01*
X156743000Y-87346250D01*
X156743000Y-86247000D01*
X156997000Y-86247000D01*
X156997000Y-87346250D01*
X157155750Y-87505000D01*
X157870000Y-87508072D01*
X157994482Y-87495812D01*
X158114180Y-87459502D01*
X158224494Y-87400537D01*
X158321185Y-87321185D01*
X158400537Y-87224494D01*
X158459502Y-87114180D01*
X158495812Y-86994482D01*
X158508072Y-86870000D01*
X158505000Y-86405750D01*
X158346250Y-86247000D01*
X156997000Y-86247000D01*
X156743000Y-86247000D01*
X155393750Y-86247000D01*
X155235000Y-86405750D01*
X155231928Y-86870000D01*
X140360000Y-86870000D01*
X140360000Y-64289606D01*
X146839606Y-57810000D01*
X156650196Y-57810000D01*
X147273974Y-67186223D01*
G36*
X148921315Y-81161185D02*
G01*
X149018006Y-81240537D01*
X149044728Y-81254820D01*
X145969549Y-84330000D01*
X145965648Y-84330000D01*
X146000472Y-84264850D01*
X146051008Y-84098254D01*
X146068072Y-83925000D01*
X146068072Y-83299229D01*
X148019231Y-81348072D01*
X148228750Y-81348072D01*
X148400785Y-81331128D01*
X148566209Y-81280947D01*
X148718664Y-81199458D01*
X148852292Y-81089792D01*
X148857508Y-81083436D01*
X148921315Y-81161185D01*
X148921315Y-81161185D01*
G37*
X148921315Y-81161185D02*
X149018006Y-81240537D01*
X149044728Y-81254820D01*
X145969549Y-84330000D01*
X145965648Y-84330000D01*
X146000472Y-84264850D01*
X146051008Y-84098254D01*
X146068072Y-83925000D01*
X146068072Y-83299229D01*
X148019231Y-81348072D01*
X148228750Y-81348072D01*
X148400785Y-81331128D01*
X148566209Y-81280947D01*
X148718664Y-81199458D01*
X148852292Y-81089792D01*
X148857508Y-81083436D01*
X148921315Y-81161185D01*
G36*
X149987000Y-79883000D02*
G01*
X150007000Y-79883000D01*
X150007000Y-80137000D01*
X149987000Y-80137000D01*
X149987000Y-80157000D01*
X149733000Y-80157000D01*
X149733000Y-80137000D01*
X149713000Y-80137000D01*
X149713000Y-79883000D01*
X149733000Y-79883000D01*
X149733000Y-79863000D01*
X149987000Y-79863000D01*
X149987000Y-79883000D01*
X149987000Y-79883000D01*
G37*
X149987000Y-79883000D02*
X150007000Y-79883000D01*
X150007000Y-80137000D01*
X149987000Y-80137000D01*
X149987000Y-80157000D01*
X149733000Y-80157000D01*
X149733000Y-80137000D01*
X149713000Y-80137000D01*
X149713000Y-79883000D01*
X149733000Y-79883000D01*
X149733000Y-79863000D01*
X149987000Y-79863000D01*
X149987000Y-79883000D01*
G36*
X149200226Y-70653937D02*
G01*
X149369744Y-70767205D01*
X149558102Y-70845226D01*
X149758061Y-70885000D01*
X149820199Y-70885000D01*
X150898700Y-71963502D01*
X150922499Y-71992501D01*
X151038224Y-72087474D01*
X151170253Y-72158046D01*
X151200401Y-72167191D01*
X151210542Y-72186164D01*
X151320208Y-72319792D01*
X151405756Y-72390000D01*
X151320208Y-72460208D01*
X151210542Y-72593836D01*
X151129053Y-72746291D01*
X151078872Y-72911715D01*
X151061928Y-73083750D01*
X151061928Y-73571250D01*
X151078872Y-73743285D01*
X151129053Y-73908709D01*
X151210542Y-74061164D01*
X151320208Y-74194792D01*
X151453836Y-74304458D01*
X151606291Y-74385947D01*
X151771715Y-74436128D01*
X151943750Y-74453072D01*
X152450770Y-74453072D01*
X152468700Y-74471002D01*
X152492499Y-74500001D01*
X152521497Y-74523799D01*
X152608223Y-74594974D01*
X152716916Y-74653072D01*
X152740253Y-74665546D01*
X152883514Y-74709003D01*
X152995167Y-74720000D01*
X152995176Y-74720000D01*
X153032499Y-74723676D01*
X153069822Y-74720000D01*
X154284998Y-74720000D01*
X154261201Y-74748997D01*
X151337699Y-77672500D01*
X145996383Y-77672500D01*
X145918405Y-77526614D01*
X145871943Y-77470000D01*
X145918405Y-77413386D01*
X145996383Y-77267500D01*
X146775120Y-77267500D01*
X146785208Y-77279792D01*
X146918836Y-77389458D01*
X147071291Y-77470947D01*
X147236715Y-77521128D01*
X147408750Y-77538072D01*
X147896250Y-77538072D01*
X148068285Y-77521128D01*
X148233709Y-77470947D01*
X148386164Y-77389458D01*
X148519792Y-77279792D01*
X148525008Y-77273436D01*
X148588815Y-77351185D01*
X148685506Y-77430537D01*
X148795820Y-77489502D01*
X148915518Y-77525812D01*
X149040000Y-77538072D01*
X149241750Y-77535000D01*
X149400500Y-77376250D01*
X149400500Y-76327000D01*
X149654500Y-76327000D01*
X149654500Y-77376250D01*
X149813250Y-77535000D01*
X150015000Y-77538072D01*
X150139482Y-77525812D01*
X150259180Y-77489502D01*
X150369494Y-77430537D01*
X150466185Y-77351185D01*
X150545537Y-77254494D01*
X150604502Y-77144180D01*
X150640812Y-77024482D01*
X150653072Y-76900000D01*
X150650000Y-76485750D01*
X150491250Y-76327000D01*
X149654500Y-76327000D01*
X149400500Y-76327000D01*
X149380500Y-76327000D01*
X149380500Y-76073000D01*
X149400500Y-76073000D01*
X149400500Y-75023750D01*
X149654500Y-75023750D01*
X149654500Y-76073000D01*
X150491250Y-76073000D01*
X150650000Y-75914250D01*
X150653072Y-75500000D01*
X150640812Y-75375518D01*
X150604502Y-75255820D01*
X150545537Y-75145506D01*
X150466185Y-75048815D01*
X150369494Y-74969463D01*
X150259180Y-74910498D01*
X150139482Y-74874188D01*
X150015000Y-74861928D01*
X149813250Y-74865000D01*
X149654500Y-75023750D01*
X149400500Y-75023750D01*
X149241750Y-74865000D01*
X149040000Y-74861928D01*
X148915518Y-74874188D01*
X148795820Y-74910498D01*
X148685506Y-74969463D01*
X148588815Y-75048815D01*
X148525008Y-75126564D01*
X148519792Y-75120208D01*
X148386164Y-75010542D01*
X148233709Y-74929053D01*
X148068285Y-74878872D01*
X147896250Y-74861928D01*
X147408750Y-74861928D01*
X147236715Y-74878872D01*
X147071291Y-74929053D01*
X146918836Y-75010542D01*
X146785208Y-75120208D01*
X146675542Y-75253836D01*
X146594053Y-75406291D01*
X146543872Y-75571715D01*
X146526928Y-75743750D01*
X146526928Y-75747500D01*
X145996383Y-75747500D01*
X145918405Y-75601614D01*
X145807962Y-75467038D01*
X145673386Y-75356595D01*
X145519850Y-75274528D01*
X145353254Y-75223992D01*
X145180000Y-75206928D01*
X144504871Y-75206928D01*
X149129044Y-70582755D01*
X149200226Y-70653937D01*
X149200226Y-70653937D01*
G37*
X149200226Y-70653937D02*
X149369744Y-70767205D01*
X149558102Y-70845226D01*
X149758061Y-70885000D01*
X149820199Y-70885000D01*
X150898700Y-71963502D01*
X150922499Y-71992501D01*
X151038224Y-72087474D01*
X151170253Y-72158046D01*
X151200401Y-72167191D01*
X151210542Y-72186164D01*
X151320208Y-72319792D01*
X151405756Y-72390000D01*
X151320208Y-72460208D01*
X151210542Y-72593836D01*
X151129053Y-72746291D01*
X151078872Y-72911715D01*
X151061928Y-73083750D01*
X151061928Y-73571250D01*
X151078872Y-73743285D01*
X151129053Y-73908709D01*
X151210542Y-74061164D01*
X151320208Y-74194792D01*
X151453836Y-74304458D01*
X151606291Y-74385947D01*
X151771715Y-74436128D01*
X151943750Y-74453072D01*
X152450770Y-74453072D01*
X152468700Y-74471002D01*
X152492499Y-74500001D01*
X152521497Y-74523799D01*
X152608223Y-74594974D01*
X152716916Y-74653072D01*
X152740253Y-74665546D01*
X152883514Y-74709003D01*
X152995167Y-74720000D01*
X152995176Y-74720000D01*
X153032499Y-74723676D01*
X153069822Y-74720000D01*
X154284998Y-74720000D01*
X154261201Y-74748997D01*
X151337699Y-77672500D01*
X145996383Y-77672500D01*
X145918405Y-77526614D01*
X145871943Y-77470000D01*
X145918405Y-77413386D01*
X145996383Y-77267500D01*
X146775120Y-77267500D01*
X146785208Y-77279792D01*
X146918836Y-77389458D01*
X147071291Y-77470947D01*
X147236715Y-77521128D01*
X147408750Y-77538072D01*
X147896250Y-77538072D01*
X148068285Y-77521128D01*
X148233709Y-77470947D01*
X148386164Y-77389458D01*
X148519792Y-77279792D01*
X148525008Y-77273436D01*
X148588815Y-77351185D01*
X148685506Y-77430537D01*
X148795820Y-77489502D01*
X148915518Y-77525812D01*
X149040000Y-77538072D01*
X149241750Y-77535000D01*
X149400500Y-77376250D01*
X149400500Y-76327000D01*
X149654500Y-76327000D01*
X149654500Y-77376250D01*
X149813250Y-77535000D01*
X150015000Y-77538072D01*
X150139482Y-77525812D01*
X150259180Y-77489502D01*
X150369494Y-77430537D01*
X150466185Y-77351185D01*
X150545537Y-77254494D01*
X150604502Y-77144180D01*
X150640812Y-77024482D01*
X150653072Y-76900000D01*
X150650000Y-76485750D01*
X150491250Y-76327000D01*
X149654500Y-76327000D01*
X149400500Y-76327000D01*
X149380500Y-76327000D01*
X149380500Y-76073000D01*
X149400500Y-76073000D01*
X149400500Y-75023750D01*
X149654500Y-75023750D01*
X149654500Y-76073000D01*
X150491250Y-76073000D01*
X150650000Y-75914250D01*
X150653072Y-75500000D01*
X150640812Y-75375518D01*
X150604502Y-75255820D01*
X150545537Y-75145506D01*
X150466185Y-75048815D01*
X150369494Y-74969463D01*
X150259180Y-74910498D01*
X150139482Y-74874188D01*
X150015000Y-74861928D01*
X149813250Y-74865000D01*
X149654500Y-75023750D01*
X149400500Y-75023750D01*
X149241750Y-74865000D01*
X149040000Y-74861928D01*
X148915518Y-74874188D01*
X148795820Y-74910498D01*
X148685506Y-74969463D01*
X148588815Y-75048815D01*
X148525008Y-75126564D01*
X148519792Y-75120208D01*
X148386164Y-75010542D01*
X148233709Y-74929053D01*
X148068285Y-74878872D01*
X147896250Y-74861928D01*
X147408750Y-74861928D01*
X147236715Y-74878872D01*
X147071291Y-74929053D01*
X146918836Y-75010542D01*
X146785208Y-75120208D01*
X146675542Y-75253836D01*
X146594053Y-75406291D01*
X146543872Y-75571715D01*
X146526928Y-75743750D01*
X146526928Y-75747500D01*
X145996383Y-75747500D01*
X145918405Y-75601614D01*
X145807962Y-75467038D01*
X145673386Y-75356595D01*
X145519850Y-75274528D01*
X145353254Y-75223992D01*
X145180000Y-75206928D01*
X144504871Y-75206928D01*
X149129044Y-70582755D01*
X149200226Y-70653937D01*
G36*
X166585725Y-66257525D02*
G01*
X166497000Y-66346250D01*
X166497000Y-67183000D01*
X166517000Y-67183000D01*
X166517000Y-67437000D01*
X166497000Y-67437000D01*
X166497000Y-67457000D01*
X166243000Y-67457000D01*
X166243000Y-67437000D01*
X165193750Y-67437000D01*
X165035000Y-67595750D01*
X165034745Y-67612490D01*
X163067292Y-67612490D01*
X162277302Y-66822500D01*
X165031928Y-66822500D01*
X165035000Y-67024250D01*
X165193750Y-67183000D01*
X166243000Y-67183000D01*
X166243000Y-66346250D01*
X166084250Y-66187500D01*
X165670000Y-66184428D01*
X165545518Y-66196688D01*
X165425820Y-66232998D01*
X165315506Y-66291963D01*
X165218815Y-66371315D01*
X165139463Y-66468006D01*
X165080498Y-66578320D01*
X165044188Y-66698018D01*
X165031928Y-66822500D01*
X162277302Y-66822500D01*
X162213804Y-66759002D01*
X162190001Y-66729999D01*
X162074276Y-66635026D01*
X162029120Y-66610890D01*
X162038072Y-66520000D01*
X162038072Y-66456729D01*
X162419803Y-66074999D01*
X166403200Y-66074999D01*
X166585725Y-66257525D01*
X166585725Y-66257525D01*
G37*
X166585725Y-66257525D02*
X166497000Y-66346250D01*
X166497000Y-67183000D01*
X166517000Y-67183000D01*
X166517000Y-67437000D01*
X166497000Y-67437000D01*
X166497000Y-67457000D01*
X166243000Y-67457000D01*
X166243000Y-67437000D01*
X165193750Y-67437000D01*
X165035000Y-67595750D01*
X165034745Y-67612490D01*
X163067292Y-67612490D01*
X162277302Y-66822500D01*
X165031928Y-66822500D01*
X165035000Y-67024250D01*
X165193750Y-67183000D01*
X166243000Y-67183000D01*
X166243000Y-66346250D01*
X166084250Y-66187500D01*
X165670000Y-66184428D01*
X165545518Y-66196688D01*
X165425820Y-66232998D01*
X165315506Y-66291963D01*
X165218815Y-66371315D01*
X165139463Y-66468006D01*
X165080498Y-66578320D01*
X165044188Y-66698018D01*
X165031928Y-66822500D01*
X162277302Y-66822500D01*
X162213804Y-66759002D01*
X162190001Y-66729999D01*
X162074276Y-66635026D01*
X162029120Y-66610890D01*
X162038072Y-66520000D01*
X162038072Y-66456729D01*
X162419803Y-66074999D01*
X166403200Y-66074999D01*
X166585725Y-66257525D01*
G36*
X155461928Y-61520000D02*
G01*
X155474188Y-61644482D01*
X155510498Y-61764180D01*
X155513279Y-61769382D01*
X155475734Y-61887987D01*
X155465000Y-61988250D01*
X155623750Y-62147000D01*
X155987580Y-62147000D01*
X156100000Y-62158072D01*
X157247000Y-62158072D01*
X157247000Y-62381928D01*
X156100000Y-62381928D01*
X155987580Y-62393000D01*
X155623750Y-62393000D01*
X155465000Y-62551750D01*
X155475734Y-62652013D01*
X155513279Y-62770618D01*
X155510498Y-62775820D01*
X155474188Y-62895518D01*
X155461928Y-63020000D01*
X155461928Y-63520000D01*
X155474188Y-63644482D01*
X155510498Y-63764180D01*
X155513609Y-63770000D01*
X155510498Y-63775820D01*
X155474188Y-63895518D01*
X155461928Y-64020000D01*
X155461928Y-64520000D01*
X155474188Y-64644482D01*
X155510498Y-64764180D01*
X155513609Y-64770000D01*
X155510498Y-64775820D01*
X155474188Y-64895518D01*
X155461928Y-65020000D01*
X155461928Y-65510000D01*
X151099799Y-65510000D01*
X155461928Y-61147872D01*
X155461928Y-61520000D01*
X155461928Y-61520000D01*
G37*
X155461928Y-61520000D02*
X155474188Y-61644482D01*
X155510498Y-61764180D01*
X155513279Y-61769382D01*
X155475734Y-61887987D01*
X155465000Y-61988250D01*
X155623750Y-62147000D01*
X155987580Y-62147000D01*
X156100000Y-62158072D01*
X157247000Y-62158072D01*
X157247000Y-62381928D01*
X156100000Y-62381928D01*
X155987580Y-62393000D01*
X155623750Y-62393000D01*
X155465000Y-62551750D01*
X155475734Y-62652013D01*
X155513279Y-62770618D01*
X155510498Y-62775820D01*
X155474188Y-62895518D01*
X155461928Y-63020000D01*
X155461928Y-63520000D01*
X155474188Y-63644482D01*
X155510498Y-63764180D01*
X155513609Y-63770000D01*
X155510498Y-63775820D01*
X155474188Y-63895518D01*
X155461928Y-64020000D01*
X155461928Y-64520000D01*
X155474188Y-64644482D01*
X155510498Y-64764180D01*
X155513609Y-64770000D01*
X155510498Y-64775820D01*
X155474188Y-64895518D01*
X155461928Y-65020000D01*
X155461928Y-65510000D01*
X151099799Y-65510000D01*
X155461928Y-61147872D01*
X155461928Y-61520000D01*
G36*
X167535031Y-64666831D02*
G01*
X167535031Y-65057228D01*
X167281805Y-64804001D01*
X167258002Y-64774998D01*
X167142277Y-64680025D01*
X167010248Y-64609453D01*
X166866987Y-64565996D01*
X166755334Y-64554999D01*
X166755323Y-64554999D01*
X166718001Y-64551323D01*
X166680679Y-64554999D01*
X162142323Y-64554999D01*
X162105000Y-64551323D01*
X162067677Y-64554999D01*
X162067668Y-64554999D01*
X162034301Y-64558285D01*
X162038072Y-64520000D01*
X162038072Y-64020000D01*
X162025812Y-63895518D01*
X161989502Y-63775820D01*
X161986391Y-63770000D01*
X161989502Y-63764180D01*
X162025812Y-63644482D01*
X162038072Y-63520000D01*
X162038072Y-63020000D01*
X162025812Y-62895518D01*
X161989502Y-62775820D01*
X161986721Y-62770618D01*
X162024266Y-62652013D01*
X162035000Y-62551750D01*
X161876250Y-62393000D01*
X161512420Y-62393000D01*
X161400000Y-62381928D01*
X160253000Y-62381928D01*
X160253000Y-62158072D01*
X161400000Y-62158072D01*
X161512420Y-62147000D01*
X161876250Y-62147000D01*
X162035000Y-61988250D01*
X162024266Y-61887987D01*
X161986721Y-61769382D01*
X161989502Y-61764180D01*
X162025812Y-61644482D01*
X162038072Y-61520000D01*
X162038072Y-61020000D01*
X162025812Y-60895518D01*
X161989502Y-60775820D01*
X161986391Y-60770000D01*
X161989502Y-60764180D01*
X162025812Y-60644482D01*
X162038072Y-60520000D01*
X162038072Y-60020000D01*
X162025812Y-59895518D01*
X161989502Y-59775820D01*
X161930537Y-59665506D01*
X161851185Y-59568815D01*
X161754494Y-59489463D01*
X161644180Y-59430498D01*
X161592717Y-59414887D01*
X161780256Y-59337205D01*
X161949774Y-59223937D01*
X162020956Y-59152755D01*
X167535031Y-64666831D01*
X167535031Y-64666831D01*
G37*
X167535031Y-64666831D02*
X167535031Y-65057228D01*
X167281805Y-64804001D01*
X167258002Y-64774998D01*
X167142277Y-64680025D01*
X167010248Y-64609453D01*
X166866987Y-64565996D01*
X166755334Y-64554999D01*
X166755323Y-64554999D01*
X166718001Y-64551323D01*
X166680679Y-64554999D01*
X162142323Y-64554999D01*
X162105000Y-64551323D01*
X162067677Y-64554999D01*
X162067668Y-64554999D01*
X162034301Y-64558285D01*
X162038072Y-64520000D01*
X162038072Y-64020000D01*
X162025812Y-63895518D01*
X161989502Y-63775820D01*
X161986391Y-63770000D01*
X161989502Y-63764180D01*
X162025812Y-63644482D01*
X162038072Y-63520000D01*
X162038072Y-63020000D01*
X162025812Y-62895518D01*
X161989502Y-62775820D01*
X161986721Y-62770618D01*
X162024266Y-62652013D01*
X162035000Y-62551750D01*
X161876250Y-62393000D01*
X161512420Y-62393000D01*
X161400000Y-62381928D01*
X160253000Y-62381928D01*
X160253000Y-62158072D01*
X161400000Y-62158072D01*
X161512420Y-62147000D01*
X161876250Y-62147000D01*
X162035000Y-61988250D01*
X162024266Y-61887987D01*
X161986721Y-61769382D01*
X161989502Y-61764180D01*
X162025812Y-61644482D01*
X162038072Y-61520000D01*
X162038072Y-61020000D01*
X162025812Y-60895518D01*
X161989502Y-60775820D01*
X161986391Y-60770000D01*
X161989502Y-60764180D01*
X162025812Y-60644482D01*
X162038072Y-60520000D01*
X162038072Y-60020000D01*
X162025812Y-59895518D01*
X161989502Y-59775820D01*
X161930537Y-59665506D01*
X161851185Y-59568815D01*
X161754494Y-59489463D01*
X161644180Y-59430498D01*
X161592717Y-59414887D01*
X161780256Y-59337205D01*
X161949774Y-59223937D01*
X162020956Y-59152755D01*
X167535031Y-64666831D01*
M02*
