M48
; DRILL file {KiCad (5.1.2)-2} date 17/11/2019 20:52:22
; FORMAT={-:-/ absolute / inch / decimal}
; #@! TF.CreationDate,2019-11-17T20:52:22-03:00
; #@! TF.GenerationSoftware,Kicad,Pcbnew,(5.1.2)-2
; #@! TF.FileFunction,Plated,1,2,PTH
FMAT,2
INCH
T1C0.0118
T2C0.0157
T3C0.0197
%
G90
G05
T1
X6.1988Y-2.8339
X6.1988Y-2.8919
X6.1988Y-2.95
X6.1988Y-3.0081
X6.1988Y-3.0661
X6.25Y-2.8339
X6.25Y-2.8919
X6.25Y-2.95
X6.25Y-3.0081
X6.25Y-3.0661
X6.3012Y-2.8339
X6.3012Y-2.8919
X6.3012Y-2.95
X6.3012Y-3.0081
X6.3012Y-3.0661
T2
X5.8Y-3.25
X5.9Y-2.75
X6.0Y-2.95
X6.05Y-2.55
X6.35Y-2.3
X6.4Y-2.5
X6.45Y-2.6
X6.5Y-2.95
X6.5Y-3.15
X6.7Y-2.75
T3
G00X6.726Y-2.5577
M15
G01X6.7535Y-2.5577
M16
G05
G00X6.8283Y-2.6423
M15
G01X6.8717Y-2.6423
M16
G05
G00X6.9465Y-2.5577
M15
G01X6.974Y-2.5577
M16
G05
T0
M30
