G04 #@! TF.GenerationSoftware,KiCad,Pcbnew,(5.1.2)-2*
G04 #@! TF.CreationDate,2019-11-17T20:51:39-03:00*
G04 #@! TF.ProjectId,circuit,63697263-7569-4742-9e6b-696361645f70,rev?*
G04 #@! TF.SameCoordinates,Original*
G04 #@! TF.FileFunction,Legend,Top*
G04 #@! TF.FilePolarity,Positive*
%FSLAX46Y46*%
G04 Gerber Fmt 4.6, Leading zero omitted, Abs format (unit mm)*
G04 Created by KiCad (PCBNEW (5.1.2)-2) date 2019-11-17 20:51:39*
%MOMM*%
%LPD*%
G04 APERTURE LIST*
%ADD10C,0.150000*%
%ADD11C,0.120000*%
G04 APERTURE END LIST*
D10*
X169259523Y-83399761D02*
X169402380Y-83447380D01*
X169640476Y-83447380D01*
X169735714Y-83399761D01*
X169783333Y-83352142D01*
X169830952Y-83256904D01*
X169830952Y-83161666D01*
X169783333Y-83066428D01*
X169735714Y-83018809D01*
X169640476Y-82971190D01*
X169450000Y-82923571D01*
X169354761Y-82875952D01*
X169307142Y-82828333D01*
X169259523Y-82733095D01*
X169259523Y-82637857D01*
X169307142Y-82542619D01*
X169354761Y-82495000D01*
X169450000Y-82447380D01*
X169688095Y-82447380D01*
X169830952Y-82495000D01*
X170116666Y-82447380D02*
X170688095Y-82447380D01*
X170402380Y-83447380D02*
X170402380Y-82447380D01*
X171021428Y-83447380D02*
X171021428Y-82447380D01*
X171354761Y-83161666D01*
X171688095Y-82447380D01*
X171688095Y-83447380D01*
X172069047Y-82447380D02*
X172688095Y-82447380D01*
X172354761Y-82828333D01*
X172497619Y-82828333D01*
X172592857Y-82875952D01*
X172640476Y-82923571D01*
X172688095Y-83018809D01*
X172688095Y-83256904D01*
X172640476Y-83352142D01*
X172592857Y-83399761D01*
X172497619Y-83447380D01*
X172211904Y-83447380D01*
X172116666Y-83399761D01*
X172069047Y-83352142D01*
X173069047Y-82542619D02*
X173116666Y-82495000D01*
X173211904Y-82447380D01*
X173450000Y-82447380D01*
X173545238Y-82495000D01*
X173592857Y-82542619D01*
X173640476Y-82637857D01*
X173640476Y-82733095D01*
X173592857Y-82875952D01*
X173021428Y-83447380D01*
X173640476Y-83447380D01*
X168235714Y-85097380D02*
X168235714Y-84097380D01*
X168569047Y-84811666D01*
X168902380Y-84097380D01*
X168902380Y-85097380D01*
X169569047Y-84097380D02*
X169759523Y-84097380D01*
X169854761Y-84145000D01*
X169950000Y-84240238D01*
X169997619Y-84430714D01*
X169997619Y-84764047D01*
X169950000Y-84954523D01*
X169854761Y-85049761D01*
X169759523Y-85097380D01*
X169569047Y-85097380D01*
X169473809Y-85049761D01*
X169378571Y-84954523D01*
X169330952Y-84764047D01*
X169330952Y-84430714D01*
X169378571Y-84240238D01*
X169473809Y-84145000D01*
X169569047Y-84097380D01*
X170426190Y-85097380D02*
X170426190Y-84097380D01*
X170664285Y-84097380D01*
X170807142Y-84145000D01*
X170902380Y-84240238D01*
X170950000Y-84335476D01*
X170997619Y-84525952D01*
X170997619Y-84668809D01*
X170950000Y-84859285D01*
X170902380Y-84954523D01*
X170807142Y-85049761D01*
X170664285Y-85097380D01*
X170426190Y-85097380D01*
X171426190Y-85097380D02*
X171426190Y-84097380D01*
X172235714Y-84573571D02*
X171902380Y-84573571D01*
X171902380Y-85097380D02*
X171902380Y-84097380D01*
X172378571Y-84097380D01*
X172759523Y-85097380D02*
X172759523Y-84097380D01*
X173235714Y-84573571D02*
X173569047Y-84573571D01*
X173711904Y-85097380D02*
X173235714Y-85097380D01*
X173235714Y-84097380D01*
X173711904Y-84097380D01*
X174140476Y-85097380D02*
X174140476Y-84097380D01*
X174378571Y-84097380D01*
X174521428Y-84145000D01*
X174616666Y-84240238D01*
X174664285Y-84335476D01*
X174711904Y-84525952D01*
X174711904Y-84668809D01*
X174664285Y-84859285D01*
X174616666Y-84954523D01*
X174521428Y-85049761D01*
X174378571Y-85097380D01*
X174140476Y-85097380D01*
D11*
X172793922Y-74220000D02*
X173311078Y-74220000D01*
X172793922Y-75640000D02*
X173311078Y-75640000D01*
X153110000Y-72648578D02*
X153110000Y-72131422D01*
X151690000Y-72648578D02*
X151690000Y-72131422D01*
X172793922Y-70410000D02*
X173311078Y-70410000D01*
X172793922Y-71830000D02*
X173311078Y-71830000D01*
X172793922Y-79450000D02*
X173311078Y-79450000D01*
X172793922Y-78030000D02*
X173311078Y-78030000D01*
X165460000Y-71390000D02*
X165460000Y-74275000D01*
X165460000Y-74275000D02*
X167280000Y-74275000D01*
X167280000Y-74275000D02*
X167280000Y-71390000D01*
X145690000Y-79355000D02*
X145690000Y-76470000D01*
X143870000Y-79355000D02*
X145690000Y-79355000D01*
X143870000Y-76470000D02*
X143870000Y-79355000D01*
X145690000Y-83550000D02*
X145690000Y-80665000D01*
X145690000Y-80665000D02*
X143870000Y-80665000D01*
X143870000Y-80665000D02*
X143870000Y-83550000D01*
X172290000Y-64965000D02*
X172290000Y-64215000D01*
X172290000Y-64215000D02*
X172890000Y-64215000D01*
X171990000Y-64215000D02*
X169840000Y-64215000D01*
X178140000Y-64215000D02*
X178140000Y-67765000D01*
X169840000Y-67765000D02*
X172740000Y-67765000D01*
X169840000Y-64215000D02*
X169840000Y-67765000D01*
X178140000Y-67765000D02*
X175240000Y-67765000D01*
X175990000Y-64215000D02*
X178140000Y-64215000D01*
X157540000Y-59710000D02*
X159960000Y-59710000D01*
X157540000Y-69830000D02*
X159960000Y-69830000D01*
X156160000Y-59760000D02*
X157540000Y-59760000D01*
X157540000Y-59710000D02*
X157540000Y-59760000D01*
X159960000Y-59710000D02*
X159960000Y-59760000D01*
X157540000Y-69780000D02*
X157540000Y-69830000D01*
X159960000Y-69780000D02*
X159960000Y-69830000D01*
X148331422Y-76910000D02*
X148848578Y-76910000D01*
X148331422Y-75490000D02*
X148848578Y-75490000D01*
X148663922Y-79300000D02*
X149181078Y-79300000D01*
X148663922Y-80720000D02*
X149181078Y-80720000D01*
X165660000Y-68506078D02*
X165660000Y-67988922D01*
X167080000Y-68506078D02*
X167080000Y-67988922D01*
X156520000Y-78380000D02*
X160980000Y-78380000D01*
X155000000Y-71480000D02*
X160980000Y-71480000D01*
X161930000Y-87230000D02*
X161930000Y-85970000D01*
X161930000Y-80410000D02*
X161930000Y-81670000D01*
X158170000Y-87230000D02*
X161930000Y-87230000D01*
X155920000Y-80410000D02*
X161930000Y-80410000D01*
D10*
X172885833Y-73637142D02*
X172838214Y-73684761D01*
X172695357Y-73732380D01*
X172600119Y-73732380D01*
X172457261Y-73684761D01*
X172362023Y-73589523D01*
X172314404Y-73494285D01*
X172266785Y-73303809D01*
X172266785Y-73160952D01*
X172314404Y-72970476D01*
X172362023Y-72875238D01*
X172457261Y-72780000D01*
X172600119Y-72732380D01*
X172695357Y-72732380D01*
X172838214Y-72780000D01*
X172885833Y-72827619D01*
X173838214Y-73732380D02*
X173266785Y-73732380D01*
X173552500Y-73732380D02*
X173552500Y-72732380D01*
X173457261Y-72875238D01*
X173362023Y-72970476D01*
X173266785Y-73018095D01*
X151107142Y-72556666D02*
X151154761Y-72604285D01*
X151202380Y-72747142D01*
X151202380Y-72842380D01*
X151154761Y-72985238D01*
X151059523Y-73080476D01*
X150964285Y-73128095D01*
X150773809Y-73175714D01*
X150630952Y-73175714D01*
X150440476Y-73128095D01*
X150345238Y-73080476D01*
X150250000Y-72985238D01*
X150202380Y-72842380D01*
X150202380Y-72747142D01*
X150250000Y-72604285D01*
X150297619Y-72556666D01*
X150297619Y-72175714D02*
X150250000Y-72128095D01*
X150202380Y-72032857D01*
X150202380Y-71794761D01*
X150250000Y-71699523D01*
X150297619Y-71651904D01*
X150392857Y-71604285D01*
X150488095Y-71604285D01*
X150630952Y-71651904D01*
X151202380Y-72223333D01*
X151202380Y-71604285D01*
X172885833Y-69827142D02*
X172838214Y-69874761D01*
X172695357Y-69922380D01*
X172600119Y-69922380D01*
X172457261Y-69874761D01*
X172362023Y-69779523D01*
X172314404Y-69684285D01*
X172266785Y-69493809D01*
X172266785Y-69350952D01*
X172314404Y-69160476D01*
X172362023Y-69065238D01*
X172457261Y-68970000D01*
X172600119Y-68922380D01*
X172695357Y-68922380D01*
X172838214Y-68970000D01*
X172885833Y-69017619D01*
X173219166Y-68922380D02*
X173838214Y-68922380D01*
X173504880Y-69303333D01*
X173647738Y-69303333D01*
X173742976Y-69350952D01*
X173790595Y-69398571D01*
X173838214Y-69493809D01*
X173838214Y-69731904D01*
X173790595Y-69827142D01*
X173742976Y-69874761D01*
X173647738Y-69922380D01*
X173362023Y-69922380D01*
X173266785Y-69874761D01*
X173219166Y-69827142D01*
X172885833Y-77447142D02*
X172838214Y-77494761D01*
X172695357Y-77542380D01*
X172600119Y-77542380D01*
X172457261Y-77494761D01*
X172362023Y-77399523D01*
X172314404Y-77304285D01*
X172266785Y-77113809D01*
X172266785Y-76970952D01*
X172314404Y-76780476D01*
X172362023Y-76685238D01*
X172457261Y-76590000D01*
X172600119Y-76542380D01*
X172695357Y-76542380D01*
X172838214Y-76590000D01*
X172885833Y-76637619D01*
X173742976Y-76875714D02*
X173742976Y-77542380D01*
X173504880Y-76494761D02*
X173266785Y-77209047D01*
X173885833Y-77209047D01*
X165222380Y-73128095D02*
X164222380Y-73128095D01*
X164222380Y-72890000D01*
X164270000Y-72747142D01*
X164365238Y-72651904D01*
X164460476Y-72604285D01*
X164650952Y-72556666D01*
X164793809Y-72556666D01*
X164984285Y-72604285D01*
X165079523Y-72651904D01*
X165174761Y-72747142D01*
X165222380Y-72890000D01*
X165222380Y-73128095D01*
X165222380Y-71604285D02*
X165222380Y-72175714D01*
X165222380Y-71890000D02*
X164222380Y-71890000D01*
X164365238Y-71985238D01*
X164460476Y-72080476D01*
X164508095Y-72175714D01*
X143632380Y-78208095D02*
X142632380Y-78208095D01*
X142632380Y-77970000D01*
X142680000Y-77827142D01*
X142775238Y-77731904D01*
X142870476Y-77684285D01*
X143060952Y-77636666D01*
X143203809Y-77636666D01*
X143394285Y-77684285D01*
X143489523Y-77731904D01*
X143584761Y-77827142D01*
X143632380Y-77970000D01*
X143632380Y-78208095D01*
X142727619Y-77255714D02*
X142680000Y-77208095D01*
X142632380Y-77112857D01*
X142632380Y-76874761D01*
X142680000Y-76779523D01*
X142727619Y-76731904D01*
X142822857Y-76684285D01*
X142918095Y-76684285D01*
X143060952Y-76731904D01*
X143632380Y-77303333D01*
X143632380Y-76684285D01*
X146832380Y-83288095D02*
X145832380Y-83288095D01*
X145832380Y-83050000D01*
X145880000Y-82907142D01*
X145975238Y-82811904D01*
X146070476Y-82764285D01*
X146260952Y-82716666D01*
X146403809Y-82716666D01*
X146594285Y-82764285D01*
X146689523Y-82811904D01*
X146784761Y-82907142D01*
X146832380Y-83050000D01*
X146832380Y-83288095D01*
X145832380Y-82383333D02*
X145832380Y-81764285D01*
X146213333Y-82097619D01*
X146213333Y-81954761D01*
X146260952Y-81859523D01*
X146308571Y-81811904D01*
X146403809Y-81764285D01*
X146641904Y-81764285D01*
X146737142Y-81811904D01*
X146784761Y-81859523D01*
X146832380Y-81954761D01*
X146832380Y-82240476D01*
X146784761Y-82335714D01*
X146737142Y-82383333D01*
X173656666Y-62642380D02*
X173656666Y-63356666D01*
X173609047Y-63499523D01*
X173513809Y-63594761D01*
X173370952Y-63642380D01*
X173275714Y-63642380D01*
X174656666Y-63642380D02*
X174085238Y-63642380D01*
X174370952Y-63642380D02*
X174370952Y-62642380D01*
X174275714Y-62785238D01*
X174180476Y-62880476D01*
X174085238Y-62928095D01*
X158416666Y-58162380D02*
X158416666Y-58876666D01*
X158369047Y-59019523D01*
X158273809Y-59114761D01*
X158130952Y-59162380D01*
X158035714Y-59162380D01*
X158845238Y-58257619D02*
X158892857Y-58210000D01*
X158988095Y-58162380D01*
X159226190Y-58162380D01*
X159321428Y-58210000D01*
X159369047Y-58257619D01*
X159416666Y-58352857D01*
X159416666Y-58448095D01*
X159369047Y-58590952D01*
X158797619Y-59162380D01*
X159416666Y-59162380D01*
X148423333Y-75002380D02*
X148090000Y-74526190D01*
X147851904Y-75002380D02*
X147851904Y-74002380D01*
X148232857Y-74002380D01*
X148328095Y-74050000D01*
X148375714Y-74097619D01*
X148423333Y-74192857D01*
X148423333Y-74335714D01*
X148375714Y-74430952D01*
X148328095Y-74478571D01*
X148232857Y-74526190D01*
X147851904Y-74526190D01*
X149375714Y-75002380D02*
X148804285Y-75002380D01*
X149090000Y-75002380D02*
X149090000Y-74002380D01*
X148994761Y-74145238D01*
X148899523Y-74240476D01*
X148804285Y-74288095D01*
X148755833Y-78812380D02*
X148422500Y-78336190D01*
X148184404Y-78812380D02*
X148184404Y-77812380D01*
X148565357Y-77812380D01*
X148660595Y-77860000D01*
X148708214Y-77907619D01*
X148755833Y-78002857D01*
X148755833Y-78145714D01*
X148708214Y-78240952D01*
X148660595Y-78288571D01*
X148565357Y-78336190D01*
X148184404Y-78336190D01*
X149136785Y-77907619D02*
X149184404Y-77860000D01*
X149279642Y-77812380D01*
X149517738Y-77812380D01*
X149612976Y-77860000D01*
X149660595Y-77907619D01*
X149708214Y-78002857D01*
X149708214Y-78098095D01*
X149660595Y-78240952D01*
X149089166Y-78812380D01*
X149708214Y-78812380D01*
X165172380Y-68414166D02*
X164696190Y-68747500D01*
X165172380Y-68985595D02*
X164172380Y-68985595D01*
X164172380Y-68604642D01*
X164220000Y-68509404D01*
X164267619Y-68461785D01*
X164362857Y-68414166D01*
X164505714Y-68414166D01*
X164600952Y-68461785D01*
X164648571Y-68509404D01*
X164696190Y-68604642D01*
X164696190Y-68985595D01*
X164172380Y-68080833D02*
X164172380Y-67461785D01*
X164553333Y-67795119D01*
X164553333Y-67652261D01*
X164600952Y-67557023D01*
X164648571Y-67509404D01*
X164743809Y-67461785D01*
X164981904Y-67461785D01*
X165077142Y-67509404D01*
X165124761Y-67557023D01*
X165172380Y-67652261D01*
X165172380Y-67937976D01*
X165124761Y-68033214D01*
X165077142Y-68080833D01*
X157988095Y-70082380D02*
X157988095Y-70891904D01*
X158035714Y-70987142D01*
X158083333Y-71034761D01*
X158178571Y-71082380D01*
X158369047Y-71082380D01*
X158464285Y-71034761D01*
X158511904Y-70987142D01*
X158559523Y-70891904D01*
X158559523Y-70082380D01*
X159559523Y-71082380D02*
X158988095Y-71082380D01*
X159273809Y-71082380D02*
X159273809Y-70082380D01*
X159178571Y-70225238D01*
X159083333Y-70320476D01*
X158988095Y-70368095D01*
X159258095Y-78772380D02*
X159258095Y-79581904D01*
X159305714Y-79677142D01*
X159353333Y-79724761D01*
X159448571Y-79772380D01*
X159639047Y-79772380D01*
X159734285Y-79724761D01*
X159781904Y-79677142D01*
X159829523Y-79581904D01*
X159829523Y-78772380D01*
X160258095Y-78867619D02*
X160305714Y-78820000D01*
X160400952Y-78772380D01*
X160639047Y-78772380D01*
X160734285Y-78820000D01*
X160781904Y-78867619D01*
X160829523Y-78962857D01*
X160829523Y-79058095D01*
X160781904Y-79200952D01*
X160210476Y-79772380D01*
X160829523Y-79772380D01*
M02*
