G04 #@! TF.GenerationSoftware,KiCad,Pcbnew,(5.1.2)-2*
G04 #@! TF.CreationDate,2019-11-17T20:51:39-03:00*
G04 #@! TF.ProjectId,circuit,63697263-7569-4742-9e6b-696361645f70,rev?*
G04 #@! TF.SameCoordinates,Original*
G04 #@! TF.FileFunction,Copper,L2,Bot*
G04 #@! TF.FilePolarity,Positive*
%FSLAX46Y46*%
G04 Gerber Fmt 4.6, Leading zero omitted, Abs format (unit mm)*
G04 Created by KiCad (PCBNEW (5.1.2)-2) date 2019-11-17 20:51:39*
%MOMM*%
%LPD*%
G04 APERTURE LIST*
%ADD10O,1.800000X1.100000*%
%ADD11O,2.200000X1.100000*%
%ADD12R,3.400000X6.500000*%
%ADD13C,0.600000*%
%ADD14C,0.800000*%
%ADD15C,0.250000*%
%ADD16C,0.254000*%
G04 APERTURE END LIST*
D10*
X171190000Y-64965000D03*
X176790000Y-64965000D03*
D11*
X173990000Y-67115000D03*
D12*
X158750000Y-74930000D03*
D13*
X157450000Y-71980000D03*
X158750000Y-71980000D03*
X160050000Y-71980000D03*
X160050000Y-73455000D03*
X158750000Y-73455000D03*
X157450000Y-73455000D03*
X160050000Y-74930000D03*
X158750000Y-74930000D03*
X157450000Y-74930000D03*
X160050000Y-76405000D03*
X158750000Y-76405000D03*
X157450000Y-76405000D03*
X160050000Y-77880000D03*
X158750000Y-77880000D03*
X157450000Y-77880000D03*
D14*
X152400000Y-74930000D03*
X162560000Y-63500000D03*
X163830000Y-66040000D03*
X153670000Y-64770000D03*
X147320000Y-82550000D03*
X149860000Y-69850000D03*
X165100000Y-74930000D03*
X161290000Y-58420000D03*
X165100000Y-80010000D03*
X170180000Y-69850000D03*
D15*
X171190000Y-68840000D02*
X170180000Y-69850000D01*
X171190000Y-64965000D02*
X171190000Y-68840000D01*
X175065000Y-64965000D02*
X170180000Y-69850000D01*
X170745685Y-69850000D02*
X170180000Y-69850000D01*
X172055000Y-69850000D02*
X170745685Y-69850000D01*
X173990000Y-67915000D02*
X172055000Y-69850000D01*
X173990000Y-67115000D02*
X173990000Y-67915000D01*
X175065000Y-64965000D02*
X176790000Y-64965000D01*
D16*
G36*
X179187869Y-57824722D02*
G01*
X179279151Y-57852282D01*
X179680000Y-58653980D01*
X179680001Y-82524061D01*
X179645416Y-82963504D01*
X173313620Y-88240000D01*
X141203980Y-88240000D01*
X140402575Y-87839298D01*
X140375560Y-87752024D01*
X140360000Y-87603979D01*
X140360000Y-82448061D01*
X146285000Y-82448061D01*
X146285000Y-82651939D01*
X146324774Y-82851898D01*
X146402795Y-83040256D01*
X146516063Y-83209774D01*
X146660226Y-83353937D01*
X146829744Y-83467205D01*
X147018102Y-83545226D01*
X147218061Y-83585000D01*
X147421939Y-83585000D01*
X147621898Y-83545226D01*
X147810256Y-83467205D01*
X147979774Y-83353937D01*
X148123937Y-83209774D01*
X148237205Y-83040256D01*
X148315226Y-82851898D01*
X148355000Y-82651939D01*
X148355000Y-82448061D01*
X148315226Y-82248102D01*
X148237205Y-82059744D01*
X148123937Y-81890226D01*
X147979774Y-81746063D01*
X147810256Y-81632795D01*
X147621898Y-81554774D01*
X147421939Y-81515000D01*
X147218061Y-81515000D01*
X147018102Y-81554774D01*
X146829744Y-81632795D01*
X146660226Y-81746063D01*
X146516063Y-81890226D01*
X146402795Y-82059744D01*
X146324774Y-82248102D01*
X146285000Y-82448061D01*
X140360000Y-82448061D01*
X140360000Y-74828061D01*
X151365000Y-74828061D01*
X151365000Y-75031939D01*
X151404774Y-75231898D01*
X151482795Y-75420256D01*
X151596063Y-75589774D01*
X151740226Y-75733937D01*
X151909744Y-75847205D01*
X152098102Y-75925226D01*
X152298061Y-75965000D01*
X152501939Y-75965000D01*
X152701898Y-75925226D01*
X152890256Y-75847205D01*
X153059774Y-75733937D01*
X153203937Y-75589774D01*
X153317205Y-75420256D01*
X153395226Y-75231898D01*
X153435000Y-75031939D01*
X153435000Y-74828061D01*
X153395226Y-74628102D01*
X153317205Y-74439744D01*
X153203937Y-74270226D01*
X153059774Y-74126063D01*
X152890256Y-74012795D01*
X152701898Y-73934774D01*
X152501939Y-73895000D01*
X152298061Y-73895000D01*
X152098102Y-73934774D01*
X151909744Y-74012795D01*
X151740226Y-74126063D01*
X151596063Y-74270226D01*
X151482795Y-74439744D01*
X151404774Y-74628102D01*
X151365000Y-74828061D01*
X140360000Y-74828061D01*
X140360000Y-71680000D01*
X156411928Y-71680000D01*
X156411928Y-78180000D01*
X156424188Y-78304482D01*
X156460498Y-78424180D01*
X156519463Y-78534494D01*
X156598815Y-78631185D01*
X156695506Y-78710537D01*
X156805820Y-78769502D01*
X156925518Y-78805812D01*
X157050000Y-78818072D01*
X160450000Y-78818072D01*
X160574482Y-78805812D01*
X160694180Y-78769502D01*
X160804494Y-78710537D01*
X160901185Y-78631185D01*
X160980537Y-78534494D01*
X161039502Y-78424180D01*
X161075812Y-78304482D01*
X161088072Y-78180000D01*
X161088072Y-71680000D01*
X161075812Y-71555518D01*
X161039502Y-71435820D01*
X160980537Y-71325506D01*
X160901185Y-71228815D01*
X160804494Y-71149463D01*
X160694180Y-71090498D01*
X160574482Y-71054188D01*
X160450000Y-71041928D01*
X157050000Y-71041928D01*
X156925518Y-71054188D01*
X156805820Y-71090498D01*
X156695506Y-71149463D01*
X156598815Y-71228815D01*
X156519463Y-71325506D01*
X156460498Y-71435820D01*
X156424188Y-71555518D01*
X156411928Y-71680000D01*
X140360000Y-71680000D01*
X140360000Y-67424744D01*
X172296197Y-67424744D01*
X172296601Y-67451147D01*
X172384150Y-67667754D01*
X172512275Y-67863119D01*
X172676052Y-68029734D01*
X172869187Y-68161196D01*
X173084258Y-68252454D01*
X173313000Y-68300000D01*
X173863000Y-68300000D01*
X173863000Y-67242000D01*
X174117000Y-67242000D01*
X174117000Y-68300000D01*
X174667000Y-68300000D01*
X174895742Y-68252454D01*
X175110813Y-68161196D01*
X175303948Y-68029734D01*
X175467725Y-67863119D01*
X175595850Y-67667754D01*
X175683399Y-67451147D01*
X175683803Y-67424744D01*
X175558361Y-67242000D01*
X174117000Y-67242000D01*
X173863000Y-67242000D01*
X172421639Y-67242000D01*
X172296197Y-67424744D01*
X140360000Y-67424744D01*
X140360000Y-65938061D01*
X162795000Y-65938061D01*
X162795000Y-66141939D01*
X162834774Y-66341898D01*
X162912795Y-66530256D01*
X163026063Y-66699774D01*
X163170226Y-66843937D01*
X163339744Y-66957205D01*
X163528102Y-67035226D01*
X163728061Y-67075000D01*
X163931939Y-67075000D01*
X164131898Y-67035226D01*
X164320256Y-66957205D01*
X164489774Y-66843937D01*
X164528455Y-66805256D01*
X172296197Y-66805256D01*
X172421639Y-66988000D01*
X173863000Y-66988000D01*
X173863000Y-65930000D01*
X174117000Y-65930000D01*
X174117000Y-66988000D01*
X175558361Y-66988000D01*
X175683803Y-66805256D01*
X175683399Y-66778853D01*
X175595850Y-66562246D01*
X175467725Y-66366881D01*
X175303948Y-66200266D01*
X175110813Y-66068804D01*
X174895742Y-65977546D01*
X174667000Y-65930000D01*
X174117000Y-65930000D01*
X173863000Y-65930000D01*
X173313000Y-65930000D01*
X173084258Y-65977546D01*
X172869187Y-66068804D01*
X172676052Y-66200266D01*
X172512275Y-66366881D01*
X172384150Y-66562246D01*
X172296601Y-66778853D01*
X172296197Y-66805256D01*
X164528455Y-66805256D01*
X164633937Y-66699774D01*
X164747205Y-66530256D01*
X164825226Y-66341898D01*
X164865000Y-66141939D01*
X164865000Y-65938061D01*
X164825226Y-65738102D01*
X164747205Y-65549744D01*
X164633937Y-65380226D01*
X164528455Y-65274744D01*
X169696197Y-65274744D01*
X169696601Y-65301147D01*
X169784150Y-65517754D01*
X169912275Y-65713119D01*
X170076052Y-65879734D01*
X170269187Y-66011196D01*
X170484258Y-66102454D01*
X170713000Y-66150000D01*
X171063000Y-66150000D01*
X171063000Y-65092000D01*
X171317000Y-65092000D01*
X171317000Y-66150000D01*
X171667000Y-66150000D01*
X171895742Y-66102454D01*
X172110813Y-66011196D01*
X172303948Y-65879734D01*
X172467725Y-65713119D01*
X172595850Y-65517754D01*
X172683399Y-65301147D01*
X172683803Y-65274744D01*
X175296197Y-65274744D01*
X175296601Y-65301147D01*
X175384150Y-65517754D01*
X175512275Y-65713119D01*
X175676052Y-65879734D01*
X175869187Y-66011196D01*
X176084258Y-66102454D01*
X176313000Y-66150000D01*
X176663000Y-66150000D01*
X176663000Y-65092000D01*
X176917000Y-65092000D01*
X176917000Y-66150000D01*
X177267000Y-66150000D01*
X177495742Y-66102454D01*
X177710813Y-66011196D01*
X177903948Y-65879734D01*
X178067725Y-65713119D01*
X178195850Y-65517754D01*
X178283399Y-65301147D01*
X178283803Y-65274744D01*
X178158361Y-65092000D01*
X176917000Y-65092000D01*
X176663000Y-65092000D01*
X175421639Y-65092000D01*
X175296197Y-65274744D01*
X172683803Y-65274744D01*
X172558361Y-65092000D01*
X171317000Y-65092000D01*
X171063000Y-65092000D01*
X169821639Y-65092000D01*
X169696197Y-65274744D01*
X164528455Y-65274744D01*
X164489774Y-65236063D01*
X164320256Y-65122795D01*
X164131898Y-65044774D01*
X163931939Y-65005000D01*
X163728061Y-65005000D01*
X163528102Y-65044774D01*
X163339744Y-65122795D01*
X163170226Y-65236063D01*
X163026063Y-65380226D01*
X162912795Y-65549744D01*
X162834774Y-65738102D01*
X162795000Y-65938061D01*
X140360000Y-65938061D01*
X140360000Y-64668061D01*
X152635000Y-64668061D01*
X152635000Y-64871939D01*
X152674774Y-65071898D01*
X152752795Y-65260256D01*
X152866063Y-65429774D01*
X153010226Y-65573937D01*
X153179744Y-65687205D01*
X153368102Y-65765226D01*
X153568061Y-65805000D01*
X153771939Y-65805000D01*
X153971898Y-65765226D01*
X154160256Y-65687205D01*
X154329774Y-65573937D01*
X154473937Y-65429774D01*
X154587205Y-65260256D01*
X154665226Y-65071898D01*
X154705000Y-64871939D01*
X154705000Y-64668061D01*
X154702453Y-64655256D01*
X169696197Y-64655256D01*
X169821639Y-64838000D01*
X171063000Y-64838000D01*
X171063000Y-63780000D01*
X171317000Y-63780000D01*
X171317000Y-64838000D01*
X172558361Y-64838000D01*
X172683803Y-64655256D01*
X175296197Y-64655256D01*
X175421639Y-64838000D01*
X176663000Y-64838000D01*
X176663000Y-63780000D01*
X176917000Y-63780000D01*
X176917000Y-64838000D01*
X178158361Y-64838000D01*
X178283803Y-64655256D01*
X178283399Y-64628853D01*
X178195850Y-64412246D01*
X178067725Y-64216881D01*
X177903948Y-64050266D01*
X177710813Y-63918804D01*
X177495742Y-63827546D01*
X177267000Y-63780000D01*
X176917000Y-63780000D01*
X176663000Y-63780000D01*
X176313000Y-63780000D01*
X176084258Y-63827546D01*
X175869187Y-63918804D01*
X175676052Y-64050266D01*
X175512275Y-64216881D01*
X175384150Y-64412246D01*
X175296601Y-64628853D01*
X175296197Y-64655256D01*
X172683803Y-64655256D01*
X172683399Y-64628853D01*
X172595850Y-64412246D01*
X172467725Y-64216881D01*
X172303948Y-64050266D01*
X172110813Y-63918804D01*
X171895742Y-63827546D01*
X171667000Y-63780000D01*
X171317000Y-63780000D01*
X171063000Y-63780000D01*
X170713000Y-63780000D01*
X170484258Y-63827546D01*
X170269187Y-63918804D01*
X170076052Y-64050266D01*
X169912275Y-64216881D01*
X169784150Y-64412246D01*
X169696601Y-64628853D01*
X169696197Y-64655256D01*
X154702453Y-64655256D01*
X154665226Y-64468102D01*
X154587205Y-64279744D01*
X154473937Y-64110226D01*
X154329774Y-63966063D01*
X154160256Y-63852795D01*
X153971898Y-63774774D01*
X153771939Y-63735000D01*
X153568061Y-63735000D01*
X153368102Y-63774774D01*
X153179744Y-63852795D01*
X153010226Y-63966063D01*
X152866063Y-64110226D01*
X152752795Y-64279744D01*
X152674774Y-64468102D01*
X152635000Y-64668061D01*
X140360000Y-64668061D01*
X140360000Y-64289606D01*
X141251545Y-63398061D01*
X161525000Y-63398061D01*
X161525000Y-63601939D01*
X161564774Y-63801898D01*
X161642795Y-63990256D01*
X161756063Y-64159774D01*
X161900226Y-64303937D01*
X162069744Y-64417205D01*
X162258102Y-64495226D01*
X162458061Y-64535000D01*
X162661939Y-64535000D01*
X162861898Y-64495226D01*
X163050256Y-64417205D01*
X163219774Y-64303937D01*
X163363937Y-64159774D01*
X163477205Y-63990256D01*
X163555226Y-63801898D01*
X163595000Y-63601939D01*
X163595000Y-63398061D01*
X163555226Y-63198102D01*
X163477205Y-63009744D01*
X163363937Y-62840226D01*
X163219774Y-62696063D01*
X163050256Y-62582795D01*
X162861898Y-62504774D01*
X162661939Y-62465000D01*
X162458061Y-62465000D01*
X162258102Y-62504774D01*
X162069744Y-62582795D01*
X161900226Y-62696063D01*
X161756063Y-62840226D01*
X161642795Y-63009744D01*
X161564774Y-63198102D01*
X161525000Y-63398061D01*
X141251545Y-63398061D01*
X146839606Y-57810000D01*
X179037721Y-57810000D01*
X179187869Y-57824722D01*
X179187869Y-57824722D01*
G37*
X179187869Y-57824722D02*
X179279151Y-57852282D01*
X179680000Y-58653980D01*
X179680001Y-82524061D01*
X179645416Y-82963504D01*
X173313620Y-88240000D01*
X141203980Y-88240000D01*
X140402575Y-87839298D01*
X140375560Y-87752024D01*
X140360000Y-87603979D01*
X140360000Y-82448061D01*
X146285000Y-82448061D01*
X146285000Y-82651939D01*
X146324774Y-82851898D01*
X146402795Y-83040256D01*
X146516063Y-83209774D01*
X146660226Y-83353937D01*
X146829744Y-83467205D01*
X147018102Y-83545226D01*
X147218061Y-83585000D01*
X147421939Y-83585000D01*
X147621898Y-83545226D01*
X147810256Y-83467205D01*
X147979774Y-83353937D01*
X148123937Y-83209774D01*
X148237205Y-83040256D01*
X148315226Y-82851898D01*
X148355000Y-82651939D01*
X148355000Y-82448061D01*
X148315226Y-82248102D01*
X148237205Y-82059744D01*
X148123937Y-81890226D01*
X147979774Y-81746063D01*
X147810256Y-81632795D01*
X147621898Y-81554774D01*
X147421939Y-81515000D01*
X147218061Y-81515000D01*
X147018102Y-81554774D01*
X146829744Y-81632795D01*
X146660226Y-81746063D01*
X146516063Y-81890226D01*
X146402795Y-82059744D01*
X146324774Y-82248102D01*
X146285000Y-82448061D01*
X140360000Y-82448061D01*
X140360000Y-74828061D01*
X151365000Y-74828061D01*
X151365000Y-75031939D01*
X151404774Y-75231898D01*
X151482795Y-75420256D01*
X151596063Y-75589774D01*
X151740226Y-75733937D01*
X151909744Y-75847205D01*
X152098102Y-75925226D01*
X152298061Y-75965000D01*
X152501939Y-75965000D01*
X152701898Y-75925226D01*
X152890256Y-75847205D01*
X153059774Y-75733937D01*
X153203937Y-75589774D01*
X153317205Y-75420256D01*
X153395226Y-75231898D01*
X153435000Y-75031939D01*
X153435000Y-74828061D01*
X153395226Y-74628102D01*
X153317205Y-74439744D01*
X153203937Y-74270226D01*
X153059774Y-74126063D01*
X152890256Y-74012795D01*
X152701898Y-73934774D01*
X152501939Y-73895000D01*
X152298061Y-73895000D01*
X152098102Y-73934774D01*
X151909744Y-74012795D01*
X151740226Y-74126063D01*
X151596063Y-74270226D01*
X151482795Y-74439744D01*
X151404774Y-74628102D01*
X151365000Y-74828061D01*
X140360000Y-74828061D01*
X140360000Y-71680000D01*
X156411928Y-71680000D01*
X156411928Y-78180000D01*
X156424188Y-78304482D01*
X156460498Y-78424180D01*
X156519463Y-78534494D01*
X156598815Y-78631185D01*
X156695506Y-78710537D01*
X156805820Y-78769502D01*
X156925518Y-78805812D01*
X157050000Y-78818072D01*
X160450000Y-78818072D01*
X160574482Y-78805812D01*
X160694180Y-78769502D01*
X160804494Y-78710537D01*
X160901185Y-78631185D01*
X160980537Y-78534494D01*
X161039502Y-78424180D01*
X161075812Y-78304482D01*
X161088072Y-78180000D01*
X161088072Y-71680000D01*
X161075812Y-71555518D01*
X161039502Y-71435820D01*
X160980537Y-71325506D01*
X160901185Y-71228815D01*
X160804494Y-71149463D01*
X160694180Y-71090498D01*
X160574482Y-71054188D01*
X160450000Y-71041928D01*
X157050000Y-71041928D01*
X156925518Y-71054188D01*
X156805820Y-71090498D01*
X156695506Y-71149463D01*
X156598815Y-71228815D01*
X156519463Y-71325506D01*
X156460498Y-71435820D01*
X156424188Y-71555518D01*
X156411928Y-71680000D01*
X140360000Y-71680000D01*
X140360000Y-67424744D01*
X172296197Y-67424744D01*
X172296601Y-67451147D01*
X172384150Y-67667754D01*
X172512275Y-67863119D01*
X172676052Y-68029734D01*
X172869187Y-68161196D01*
X173084258Y-68252454D01*
X173313000Y-68300000D01*
X173863000Y-68300000D01*
X173863000Y-67242000D01*
X174117000Y-67242000D01*
X174117000Y-68300000D01*
X174667000Y-68300000D01*
X174895742Y-68252454D01*
X175110813Y-68161196D01*
X175303948Y-68029734D01*
X175467725Y-67863119D01*
X175595850Y-67667754D01*
X175683399Y-67451147D01*
X175683803Y-67424744D01*
X175558361Y-67242000D01*
X174117000Y-67242000D01*
X173863000Y-67242000D01*
X172421639Y-67242000D01*
X172296197Y-67424744D01*
X140360000Y-67424744D01*
X140360000Y-65938061D01*
X162795000Y-65938061D01*
X162795000Y-66141939D01*
X162834774Y-66341898D01*
X162912795Y-66530256D01*
X163026063Y-66699774D01*
X163170226Y-66843937D01*
X163339744Y-66957205D01*
X163528102Y-67035226D01*
X163728061Y-67075000D01*
X163931939Y-67075000D01*
X164131898Y-67035226D01*
X164320256Y-66957205D01*
X164489774Y-66843937D01*
X164528455Y-66805256D01*
X172296197Y-66805256D01*
X172421639Y-66988000D01*
X173863000Y-66988000D01*
X173863000Y-65930000D01*
X174117000Y-65930000D01*
X174117000Y-66988000D01*
X175558361Y-66988000D01*
X175683803Y-66805256D01*
X175683399Y-66778853D01*
X175595850Y-66562246D01*
X175467725Y-66366881D01*
X175303948Y-66200266D01*
X175110813Y-66068804D01*
X174895742Y-65977546D01*
X174667000Y-65930000D01*
X174117000Y-65930000D01*
X173863000Y-65930000D01*
X173313000Y-65930000D01*
X173084258Y-65977546D01*
X172869187Y-66068804D01*
X172676052Y-66200266D01*
X172512275Y-66366881D01*
X172384150Y-66562246D01*
X172296601Y-66778853D01*
X172296197Y-66805256D01*
X164528455Y-66805256D01*
X164633937Y-66699774D01*
X164747205Y-66530256D01*
X164825226Y-66341898D01*
X164865000Y-66141939D01*
X164865000Y-65938061D01*
X164825226Y-65738102D01*
X164747205Y-65549744D01*
X164633937Y-65380226D01*
X164528455Y-65274744D01*
X169696197Y-65274744D01*
X169696601Y-65301147D01*
X169784150Y-65517754D01*
X169912275Y-65713119D01*
X170076052Y-65879734D01*
X170269187Y-66011196D01*
X170484258Y-66102454D01*
X170713000Y-66150000D01*
X171063000Y-66150000D01*
X171063000Y-65092000D01*
X171317000Y-65092000D01*
X171317000Y-66150000D01*
X171667000Y-66150000D01*
X171895742Y-66102454D01*
X172110813Y-66011196D01*
X172303948Y-65879734D01*
X172467725Y-65713119D01*
X172595850Y-65517754D01*
X172683399Y-65301147D01*
X172683803Y-65274744D01*
X175296197Y-65274744D01*
X175296601Y-65301147D01*
X175384150Y-65517754D01*
X175512275Y-65713119D01*
X175676052Y-65879734D01*
X175869187Y-66011196D01*
X176084258Y-66102454D01*
X176313000Y-66150000D01*
X176663000Y-66150000D01*
X176663000Y-65092000D01*
X176917000Y-65092000D01*
X176917000Y-66150000D01*
X177267000Y-66150000D01*
X177495742Y-66102454D01*
X177710813Y-66011196D01*
X177903948Y-65879734D01*
X178067725Y-65713119D01*
X178195850Y-65517754D01*
X178283399Y-65301147D01*
X178283803Y-65274744D01*
X178158361Y-65092000D01*
X176917000Y-65092000D01*
X176663000Y-65092000D01*
X175421639Y-65092000D01*
X175296197Y-65274744D01*
X172683803Y-65274744D01*
X172558361Y-65092000D01*
X171317000Y-65092000D01*
X171063000Y-65092000D01*
X169821639Y-65092000D01*
X169696197Y-65274744D01*
X164528455Y-65274744D01*
X164489774Y-65236063D01*
X164320256Y-65122795D01*
X164131898Y-65044774D01*
X163931939Y-65005000D01*
X163728061Y-65005000D01*
X163528102Y-65044774D01*
X163339744Y-65122795D01*
X163170226Y-65236063D01*
X163026063Y-65380226D01*
X162912795Y-65549744D01*
X162834774Y-65738102D01*
X162795000Y-65938061D01*
X140360000Y-65938061D01*
X140360000Y-64668061D01*
X152635000Y-64668061D01*
X152635000Y-64871939D01*
X152674774Y-65071898D01*
X152752795Y-65260256D01*
X152866063Y-65429774D01*
X153010226Y-65573937D01*
X153179744Y-65687205D01*
X153368102Y-65765226D01*
X153568061Y-65805000D01*
X153771939Y-65805000D01*
X153971898Y-65765226D01*
X154160256Y-65687205D01*
X154329774Y-65573937D01*
X154473937Y-65429774D01*
X154587205Y-65260256D01*
X154665226Y-65071898D01*
X154705000Y-64871939D01*
X154705000Y-64668061D01*
X154702453Y-64655256D01*
X169696197Y-64655256D01*
X169821639Y-64838000D01*
X171063000Y-64838000D01*
X171063000Y-63780000D01*
X171317000Y-63780000D01*
X171317000Y-64838000D01*
X172558361Y-64838000D01*
X172683803Y-64655256D01*
X175296197Y-64655256D01*
X175421639Y-64838000D01*
X176663000Y-64838000D01*
X176663000Y-63780000D01*
X176917000Y-63780000D01*
X176917000Y-64838000D01*
X178158361Y-64838000D01*
X178283803Y-64655256D01*
X178283399Y-64628853D01*
X178195850Y-64412246D01*
X178067725Y-64216881D01*
X177903948Y-64050266D01*
X177710813Y-63918804D01*
X177495742Y-63827546D01*
X177267000Y-63780000D01*
X176917000Y-63780000D01*
X176663000Y-63780000D01*
X176313000Y-63780000D01*
X176084258Y-63827546D01*
X175869187Y-63918804D01*
X175676052Y-64050266D01*
X175512275Y-64216881D01*
X175384150Y-64412246D01*
X175296601Y-64628853D01*
X175296197Y-64655256D01*
X172683803Y-64655256D01*
X172683399Y-64628853D01*
X172595850Y-64412246D01*
X172467725Y-64216881D01*
X172303948Y-64050266D01*
X172110813Y-63918804D01*
X171895742Y-63827546D01*
X171667000Y-63780000D01*
X171317000Y-63780000D01*
X171063000Y-63780000D01*
X170713000Y-63780000D01*
X170484258Y-63827546D01*
X170269187Y-63918804D01*
X170076052Y-64050266D01*
X169912275Y-64216881D01*
X169784150Y-64412246D01*
X169696601Y-64628853D01*
X169696197Y-64655256D01*
X154702453Y-64655256D01*
X154665226Y-64468102D01*
X154587205Y-64279744D01*
X154473937Y-64110226D01*
X154329774Y-63966063D01*
X154160256Y-63852795D01*
X153971898Y-63774774D01*
X153771939Y-63735000D01*
X153568061Y-63735000D01*
X153368102Y-63774774D01*
X153179744Y-63852795D01*
X153010226Y-63966063D01*
X152866063Y-64110226D01*
X152752795Y-64279744D01*
X152674774Y-64468102D01*
X152635000Y-64668061D01*
X140360000Y-64668061D01*
X140360000Y-64289606D01*
X141251545Y-63398061D01*
X161525000Y-63398061D01*
X161525000Y-63601939D01*
X161564774Y-63801898D01*
X161642795Y-63990256D01*
X161756063Y-64159774D01*
X161900226Y-64303937D01*
X162069744Y-64417205D01*
X162258102Y-64495226D01*
X162458061Y-64535000D01*
X162661939Y-64535000D01*
X162861898Y-64495226D01*
X163050256Y-64417205D01*
X163219774Y-64303937D01*
X163363937Y-64159774D01*
X163477205Y-63990256D01*
X163555226Y-63801898D01*
X163595000Y-63601939D01*
X163595000Y-63398061D01*
X163555226Y-63198102D01*
X163477205Y-63009744D01*
X163363937Y-62840226D01*
X163219774Y-62696063D01*
X163050256Y-62582795D01*
X162861898Y-62504774D01*
X162661939Y-62465000D01*
X162458061Y-62465000D01*
X162258102Y-62504774D01*
X162069744Y-62582795D01*
X161900226Y-62696063D01*
X161756063Y-62840226D01*
X161642795Y-63009744D01*
X161564774Y-63198102D01*
X161525000Y-63398061D01*
X141251545Y-63398061D01*
X146839606Y-57810000D01*
X179037721Y-57810000D01*
X179187869Y-57824722D01*
M02*
